<svg width="39" height="36" viewBox="0 0 39 36" fill="none" xmlns="http://www.w3.org/2000/svg">
<rect x="0.5" y="0.5" width="38" height="35" rx="5" fill="#FFC458"/>
<path d="M19.4206 15.619H21.4048V12.7619H24.381V10.8571H21.4048V8H19.4206V10.8571H16.4444V12.7619H19.4206V15.619ZM15.4524 24.1905C14.3611 24.1905 13.4782 25.0476 13.4782 26.0952C13.4782 27.1429 14.3611 28 15.4524 28C16.5437 28 17.4365 27.1429 17.4365 26.0952C17.4365 25.0476 16.5437 24.1905 15.4524 24.1905ZM25.373 24.1905C24.2817 24.1905 23.3988 25.0476 23.3988 26.0952C23.3988 27.1429 24.2817 28 25.373 28C26.4643 28 27.3571 27.1429 27.3571 26.0952C27.3571 25.0476 26.4643 24.1905 25.373 24.1905ZM15.621 21.0952L15.6508 20.981L16.5437 19.4286H23.9345C24.6786 19.4286 25.3333 19.0381 25.6706 18.4476L29.5 11.7714L27.7738 10.8571H27.7639L26.6726 12.7619L23.9345 17.5238H16.9702L16.8413 17.2667L14.619 12.7619L13.6766 10.8571L12.744 8.95238H9.5V10.8571H11.4841L15.0556 18.0857L13.7163 20.419C13.5575 20.6857 13.4683 21 13.4683 21.3333C13.4683 22.381 14.3611 23.2381 15.4524 23.2381H27.3571V21.3333H15.869C15.7401 21.3333 15.621 21.2286 15.621 21.0952Z" fill="#002460"/>
</svg>
