<svg width="400" height="400" viewBox="0 0 400 400" fill="none" xmlns="http://www.w3.org/2000/svg">
<g clip-path="url(#clip0)">
<path opacity="0.1" d="M234.586 67.598C209.276 66.4912 185.167 56.2153 162.148 44.9702C139.13 33.7252 116.331 21.2652 91.6272 15.3082C75.7381 11.4762 57.5652 10.9351 44.7656 21.6489C32.443 31.979 28.4619 49.7614 26.3228 66.2797C24.7116 78.7053 23.7652 91.7802 28.1804 103.414C31.2424 111.491 36.6822 118.279 40.4403 126.042C53.5294 152.959 44.2806 186.153 30.0966 212.435C23.4484 224.768 15.7248 236.539 10.594 249.653C5.46322 262.767 3.08553 277.815 7.57499 291.205C12.0293 304.486 22.6389 314.442 34.1285 321.452C57.4714 335.693 84.9673 339.766 111.799 342.073C171.174 347.184 230.863 344.97 290.395 342.757C312.428 341.935 334.555 341.104 356.228 336.819C368.265 334.439 380.689 330.666 389.429 321.546C400.52 309.971 403.269 290.368 395.839 275.857C383.368 251.513 348.911 245.467 340.182 219.337C335.388 204.958 340.315 188.942 347.284 175.601C362.238 146.992 387.302 121.89 388.624 89.1879C389.531 66.7224 377.478 44.2324 358.848 33.6023C339.322 22.4212 312.236 23.8379 297.837 42.2795C283 61.2819 256.932 68.572 234.586 67.598Z" fill="#FF0000"/>
<path d="M170.291 339.663L36.4358 338.841L23.1356 299.602L70.1654 295.307L61.9686 252.285L154.988 237.119L65.9145 198.17L73.7828 195.819L217.011 225.21L209.124 292.351L197.849 329.249L170.291 339.663Z" fill="#FFC458"/>
<path d="M38.4889 322.406C38.4889 322.406 46.7014 320.754 51.6288 328.054C51.6288 328.054 48.0153 331.635 40.2409 326.676L38.4889 322.406Z" fill="#FFC458"/>
<path d="M37.6286 322.244C37.6286 322.244 32.3882 330.356 34.9693 339.387C34.9693 339.387 39.2398 337.237 39.7051 326.288L37.6286 322.244Z" fill="#FFC458"/>
<path d="M32.9201 308.909C32.9201 308.909 36.2051 301.328 49.345 311.939C49.345 311.939 47.593 317.035 41.7895 316.622C35.9861 316.208 34.4531 312.903 32.9201 308.909Z" fill="#FFC458"/>
<path d="M32.0715 308.362C32.0715 308.362 25.2552 307.379 24.5943 327.006C24.5943 327.006 28.9156 328.132 31.9854 321.924C35.0553 315.716 33.7961 312.234 32.0715 308.362Z" fill="#FFC458"/>
<path d="M28.1021 292.705C28.1021 292.705 31.9346 279.345 45.841 288.848C45.841 288.848 42.6655 301.107 29.5256 297.25L28.1021 292.705Z" fill="#FFC458"/>
<path d="M23.8317 272.734C23.8317 272.734 31.0586 259.236 43.87 271.75C43.87 271.75 39.3806 284.421 24.9267 277.535L23.8317 272.734Z" fill="#FFC458"/>
<path d="M22.2987 253.726C22.2987 253.726 30.7301 241.325 43.4164 253.726C43.4164 253.726 35.4229 264.607 22.2987 256.894V253.726Z" fill="#FFC458"/>
<path d="M20.9847 235.265C20.9847 235.265 29.5256 222.318 41.68 234.576C41.68 234.576 32.0441 246.008 20.9847 238.295V235.265Z" fill="#FFC458"/>
<path d="M21.7512 218.874C21.7512 218.874 30.7458 202.209 42.118 213.503C42.118 213.503 32.4821 227.827 21.7512 222.042V218.874Z" fill="#FFC458"/>
<path d="M23.8317 199.729C23.8317 199.729 33.3581 183.201 44.4175 195.873C44.4175 195.873 33.1391 210.197 23.8317 202.76V199.729Z" fill="#FFC458"/>
<path d="M27.0071 182.616C27.0071 182.616 38.2855 167.082 48.1248 173.27C48.1248 173.27 36.3732 189.768 26.5144 186.738L27.0071 182.616Z" fill="#FFC458"/>
<path d="M30.9491 166.393C30.9491 166.393 43.9639 147.366 51.5349 153.721C51.5349 153.721 41.9459 168.479 30.0262 169.954L30.9491 166.393Z" fill="#FFC458"/>
<path d="M36.6392 147.577C36.6392 147.577 48.031 132.043 56.3529 135.899C56.3529 135.899 46.6075 152.014 35.1101 152.428L36.6392 147.577Z" fill="#FFC458"/>
<path d="M41.7895 129.977C41.7895 129.977 54.3819 115.102 59.8569 117.719C59.8569 117.719 50.7685 134.247 41.242 133.283L41.7895 129.977Z" fill="#FFC458"/>
<path d="M46.8265 113.724C46.8265 113.724 57.6669 95.9516 63.5837 97.329C63.5837 97.329 57.0099 113.173 46.8265 115.53V113.724Z" fill="#FFC458"/>
<path d="M52.2936 91.8097C52.2936 91.8097 61.8748 78.1888 67.0525 78.2183C67.0525 78.2183 59.4893 96.4189 51.8986 96.2517L52.2936 91.8097Z" fill="#FFC458"/>
<path d="M55.5317 77.2198L64.7882 48.8465C64.7882 48.8465 65.2497 74.4946 54.3546 82.4832L55.5317 77.2198Z" fill="#FFC458"/>
<path d="M59.2898 45.9295C59.2898 45.9295 60.8228 22.2342 59.8373 20.306C59.8373 20.306 66.4542 40.0069 59.2272 56.3973L59.2898 45.9295Z" fill="#FFC458"/>
<path d="M27.7424 292.39C27.7424 292.39 18.1456 284.908 11.9315 303.212C11.9315 303.212 20.4724 310.345 28.8725 297.058L27.7424 292.39Z" fill="#FFC458"/>
<path d="M23.5227 271.971C23.5227 271.971 11.7516 265.217 6.04199 284.328C6.04199 284.328 15.1343 292.198 24.5943 276.802L23.5227 271.971Z" fill="#FFC458"/>
<path d="M21.7512 254.863C21.7512 254.863 13.3198 242.461 0.633514 254.863C0.633514 254.863 8.62694 265.744 21.7512 258.03V254.863Z" fill="#FFC458"/>
<path d="M20.6953 235.265C20.6953 235.265 12.1544 222.318 0 234.576C0 234.576 9.63591 246.008 20.6953 238.295V235.265Z" fill="#FFC458"/>
<path d="M21.7512 219.347C21.7512 219.347 15.7601 200.679 2.73749 208.707C2.73749 208.707 9.77671 225.259 21.2194 222.446L21.7512 219.347Z" fill="#FFC458"/>
<path d="M24.5864 199.636C24.5864 199.636 18.6305 180.643 5.4241 189.449C5.4241 189.449 13.5114 206.857 23.9998 202.568L24.5864 199.636Z" fill="#FFC458"/>
<path d="M28.2781 182.709C28.2781 182.709 25.9317 161.887 14.9818 160.023C14.9818 160.023 17.3048 181.981 26.8038 186.463L28.2781 182.709Z" fill="#FFC458"/>
<path d="M31.2268 166.432C31.2268 166.432 30.3117 141.345 21.2585 140.469C21.2585 140.469 21.5635 159.511 30.2061 169.984L31.2268 166.432Z" fill="#FFC458"/>
<path d="M37.5777 146.874C37.5777 146.874 34.8794 126.012 26.2368 123.464C26.2368 123.464 27.3083 143.667 36.7213 151.995L37.5777 146.874Z" fill="#FFC458"/>
<path d="M42.8141 130.149C42.8141 130.149 42.7242 108.417 37.4448 105.224C37.4448 105.224 34.1715 124.9 41.2851 132.923L42.8141 130.149Z" fill="#FFC458"/>
<path d="M47.2293 113.478C47.2293 113.478 46.4902 91.1014 41.023 87.9482C41.023 87.9482 39.1537 105.657 46.4119 114.944L47.2293 113.478Z" fill="#FFC458"/>
<path d="M53.0562 93.5954C53.0562 93.5954 53.0249 75.3948 49.122 71.125C49.122 71.125 45.2426 91.062 51.0187 97.2552L53.0562 93.5954Z" fill="#FFC458"/>
<path d="M55.0741 76.3244L51.2768 46.0327C51.2768 46.0327 46.1186 70.8544 55.254 81.7945L55.0741 76.3244Z" fill="#FFC458"/>
<path d="M55.8132 46.2148C55.8132 46.2148 46.0678 25.8498 46.2672 23.587C46.2672 23.587 47.3036 44.9309 59.5635 55.561L55.8132 46.2148Z" fill="#FFC458"/>
<path d="M56.9551 40.1987C56.9551 40.1987 47.7572 11.2745 43.5963 8.93304C43.5963 8.93304 56.7361 17.3348 57.7216 39.3723L56.9551 40.1987Z" fill="#FFC458"/>
<path d="M51.8517 96.4238L51.2221 96.1828C58.9848 64.3416 60.9206 44.0405 56.6775 38.9493L57.1272 38.3492C61.6284 43.7208 59.8021 63.8005 51.8517 96.4238Z" fill="#444053"/>
<path d="M30.4759 170.977L29.5452 170.559C30.3704 167.642 31.2581 164.681 32.1888 161.764C40.2917 136.362 47.1902 112.731 51.6132 94.589L52.4227 94.0971C47.9919 112.273 41.2147 136.81 33.1039 162.246C32.1771 165.109 31.2933 168.056 30.4759 170.977Z" fill="#444053"/>
<path d="M50.0606 346.234C49.9355 346.062 37.3548 328.24 28.5832 297.816C23.4435 280.004 20.5831 261.278 20.1087 242.339C19.5065 218.663 23.4563 192.228 30.2217 168.213L30.957 169.295C15.7679 223.193 21.8021 269.379 29.8072 297.191C38.485 327.34 50.9249 344.965 51.0461 345.142L50.0606 346.234Z" fill="#444053"/>
<path d="M246.658 308.397C246.658 308.397 237.793 322.008 244.832 342.584L174.049 381.199L167.256 382.99L164.127 365.773L166.22 344.045V332.171L246.658 308.397Z" fill="#D5D6DB"/>
<path d="M23.1356 299.602L121.106 277.136L250.921 303.148L170.291 339.663L23.1356 299.602Z" fill="#FFC458"/>
<path d="M23.1356 299.602L121.106 277.136L250.921 303.148L170.291 339.663L23.1356 299.602Z" fill="#FFC458"/>
<path d="M23.1356 299.597C23.1356 299.597 13.9729 321.432 24.5317 341.601L169.813 381.199C169.813 381.199 160.795 363.805 170.279 339.663L23.1356 299.597Z" fill="#FFC458"/>
<path opacity="0.1" d="M23.1356 299.597C23.1356 299.597 13.9729 321.432 24.5317 341.601L169.813 381.199C169.813 381.199 160.795 363.805 170.279 339.663L23.1356 299.597Z" fill="black"/>
<path opacity="0.1" d="M27.4647 307.167C27.4647 307.167 22.2283 323.144 27.4647 333.484V307.167Z" fill="black"/>
<path d="M169.813 381.199L250.921 337.665C250.921 337.665 255.457 338.895 252.524 343.076C249.591 347.258 171.378 385.38 171.378 385.38L24.5317 341.601L169.813 381.199Z" fill="#FFC458"/>
<path opacity="0.1" d="M169.813 381.199L250.921 337.665C250.921 337.665 255.457 338.895 252.524 343.076C249.591 347.258 171.378 385.38 171.378 385.38L24.5317 341.601L169.813 381.199Z" fill="black"/>
<path opacity="0.1" d="M163.165 344.06C163.165 344.06 155.344 355.866 163.165 373.575V344.06Z" fill="black"/>
<path opacity="0.1" d="M201.031 343.861L165.949 358.583L166.073 359.05L201.155 344.327L201.031 343.861Z" fill="black"/>
<path opacity="0.1" d="M208.058 342.396L165.938 362.542L166.077 363.002L208.197 342.855L208.058 342.396Z" fill="black"/>
<path opacity="0.1" d="M214.511 342.325L166.173 367.212L166.321 367.668L214.66 342.78L214.511 342.325Z" fill="black"/>
<path opacity="0.1" d="M221.529 340.194L166.737 371.327L166.898 371.775L221.69 340.642L221.529 340.194Z" fill="black"/>
<path opacity="0.1" d="M227.425 340.204L167.171 373.332L167.328 373.783L227.581 340.655L227.425 340.204Z" fill="black"/>
<path opacity="0.1" d="M240.32 337.449L168.08 376.696L168.235 377.148L240.475 337.901L240.32 337.449Z" fill="black"/>
<path opacity="0.3" d="M59.5323 302.002L128.36 283.802L170.291 293.886L113.891 316.759L59.5323 302.002Z" fill="white"/>
<path d="M250.921 303.148C250.921 303.148 254.48 304.954 252.391 307.743C250.303 310.532 170.279 339.663 170.279 339.663L250.921 303.148Z" fill="#FFC458"/>
<path d="M285.487 261.085C285.487 261.085 276.626 274.691 283.665 295.273L212.882 333.888L206.089 335.688L202.96 318.471L205.084 296.749V284.859L285.487 261.085Z" fill="#D5D6DB"/>
<path d="M61.9686 252.285L159.935 229.824L289.754 255.837L209.124 292.351L61.9686 252.285Z" fill="#3A3768"/>
<path d="M61.953 252.285C61.953 252.285 52.7863 274.121 63.3452 294.289L208.627 333.888C208.627 333.888 199.613 316.479 209.108 292.346L61.953 252.285Z" fill="#3A3768"/>
<path opacity="0.1" d="M61.953 252.285C61.953 252.285 52.7863 274.121 63.3452 294.289L208.627 333.888C208.627 333.888 199.613 316.479 209.108 292.346L163.165 279.837L61.953 252.285Z" fill="black"/>
<path opacity="0.1" d="M66.2938 259.855C66.2938 259.855 61.0614 275.828 66.2938 286.172V259.855Z" fill="black"/>
<path d="M208.643 333.888L289.754 290.354C289.754 290.354 294.286 291.583 291.353 295.765C288.42 299.946 210.207 338.069 210.207 338.069L63.3608 294.289L208.643 333.888Z" fill="#3A3768"/>
<path opacity="0.1" d="M208.643 333.888L289.754 290.354C289.754 290.354 294.286 291.583 291.353 295.765C288.42 299.946 210.207 338.069 210.207 338.069L63.3608 294.289L208.643 333.888Z" fill="black"/>
<path opacity="0.1" d="M201.994 296.748C201.994 296.748 194.173 308.554 201.994 326.263V296.748Z" fill="black"/>
<path opacity="0.1" d="M239.863 296.554L204.781 311.276L204.905 311.743L239.987 297.021L239.863 296.554Z" fill="black"/>
<path opacity="0.1" d="M246.895 295.087L204.775 315.234L204.914 315.693L247.034 295.546L246.895 295.087Z" fill="black"/>
<path opacity="0.1" d="M253.343 295.009L205.004 319.897L205.152 320.352L253.491 295.465L253.343 295.009Z" fill="black"/>
<path opacity="0.1" d="M260.365 292.879L205.573 324.012L205.734 324.461L260.526 293.327L260.365 292.879Z" fill="black"/>
<path opacity="0.1" d="M266.255 292.883L206.001 326.011L206.158 326.462L266.412 293.334L266.255 292.883Z" fill="black"/>
<path opacity="0.1" d="M279.153 290.128L206.913 329.375L207.068 329.827L279.308 290.58L279.153 290.128Z" fill="black"/>
<path opacity="0.45" d="M98.3653 254.69L167.193 236.49L209.124 246.574L152.724 269.448L98.3653 254.69Z" fill="white"/>
<path d="M289.754 255.837C289.754 255.837 293.309 257.642 291.224 260.426C289.14 263.21 209.124 292.346 209.124 292.346L289.754 255.837Z" fill="#3A3768"/>
<path d="M289.163 206.961C289.163 206.961 280.298 231.394 287.337 251.97L216.554 279.763L209.777 281.568L206.648 264.351L208.74 242.624V230.734L289.163 206.961Z" fill="#D5D6DB"/>
<path d="M65.6564 198.165L163.627 175.7L293.446 201.712L212.811 238.226L65.6564 198.165Z" fill="#FFC458"/>
<path d="M65.6564 198.16C65.6564 198.16 56.478 219.996 67.0369 240.164L212.319 279.763C212.319 279.763 203.301 262.354 212.796 238.226L65.6564 198.16Z" fill="#FFC458"/>
<path opacity="0.1" d="M65.6564 198.16C65.6564 198.16 56.478 219.996 67.0369 240.164L212.319 279.763C212.319 279.763 203.301 262.354 212.796 238.226L65.6564 198.16Z" fill="black"/>
<path opacity="0.1" d="M69.9855 205.731C69.9855 205.731 64.7491 221.708 69.9855 232.048V205.731Z" fill="black"/>
<path d="M212.334 279.763L293.442 247.051C293.442 247.051 297.978 248.281 295.045 252.462C292.112 256.643 213.899 283.944 213.899 283.944L67.0525 240.164L212.334 279.763Z" fill="#FFC458"/>
<path opacity="0.1" d="M212.334 279.763L293.442 247.051C293.442 247.051 297.978 248.281 295.045 252.462C292.112 256.643 213.899 283.944 213.899 283.944L67.0525 240.164L212.334 279.763Z" fill="black"/>
<path opacity="0.1" d="M205.686 242.624C205.686 242.624 197.865 254.43 205.686 272.138V242.624Z" fill="black"/>
<path opacity="0.1" d="M243.556 242.428L208.474 257.151L208.598 257.618L243.68 242.895L243.556 242.428Z" fill="black"/>
<path opacity="0.1" d="M250.585 240.964L208.465 261.11L208.604 261.57L250.724 241.423L250.585 240.964Z" fill="black"/>
<path opacity="0.1" d="M257.029 240.889L208.691 265.776L208.839 266.231L257.177 241.344L257.029 240.889Z" fill="black"/>
<path opacity="0.1" d="M264.057 238.754L209.265 269.887L209.426 270.335L264.218 239.202L264.057 238.754Z" fill="black"/>
<path opacity="0.1" d="M269.949 238.763L209.695 271.89L209.852 272.341L270.105 239.213L269.949 238.763Z" fill="black"/>
<path opacity="0.1" d="M282.846 236.011L210.605 275.258L210.761 275.71L283.001 236.463L282.846 236.011Z" fill="black"/>
<path opacity="0.3" d="M102.053 200.566L170.881 182.365L212.811 192.449L156.412 215.323L102.053 200.566Z" fill="white"/>
<path d="M293.442 201.712C293.442 201.712 297.001 203.517 294.912 206.306C292.824 209.095 212.811 238.226 212.811 238.226L293.442 201.712Z" fill="#FFC458"/>
<path d="M121.395 52.3882C121.395 52.3882 106.535 51.2617 108.271 64.376C108.271 64.376 107.923 66.6929 109.593 67.7456C109.593 67.7456 109.62 66.7618 111.118 67.1012C111.653 67.2167 112.196 67.2497 112.737 67.1996C113.466 67.1368 114.159 66.7777 114.712 66.1764C114.712 66.1764 118.893 64.0022 120.519 55.4036C120.519 55.4036 121.724 53.5294 121.693 53.0474L119.174 54.3952C119.174 54.3952 120.031 56.6727 119.358 58.5666C119.358 58.5666 119.276 54.4788 118.791 54.5723C118.693 54.5723 117.489 55.3642 117.489 55.3642C117.489 55.3642 118.963 59.3339 117.848 62.2165C117.848 62.2165 118.271 57.327 117.027 55.6495L115.259 56.9482C115.259 56.9482 116.984 61.0458 115.815 64.3908C115.815 64.3908 116.116 59.2602 114.888 57.263L113.285 58.8371C113.285 58.8371 114.908 62.8757 113.918 65.65C113.918 65.65 113.789 59.6783 112.94 59.2257C112.94 59.2257 111.537 60.7802 111.325 61.4196C111.325 61.4196 112.436 64.3711 111.744 65.9009C111.744 65.9009 111.325 61.9214 110.962 61.9017C110.962 61.9017 109.566 64.5383 109.421 66.3289C109.488 64.6596 109.902 63.0417 110.621 61.6361C109.817 61.8276 109.074 62.3116 108.486 63.0282C108.486 63.0282 108.701 61.1638 110.969 61.0015C110.969 61.0015 112.123 58.9994 112.432 58.8814C112.432 58.8814 110.176 58.6403 108.811 59.4028C108.811 59.4028 110.015 57.6467 112.843 58.419L114.407 56.7957C114.407 56.7957 111.443 56.3038 110.183 56.8498C110.183 56.8498 111.634 55.2954 114.833 56.4268L116.558 55.133C116.558 55.133 114.028 54.4493 112.522 54.6952C112.522 54.6952 114.11 53.618 117.062 54.7838L118.29 54.0902C118.29 54.0902 116.441 53.6327 115.897 53.5589C115.353 53.4852 115.326 53.2982 115.326 53.2982C116.5 53.0557 117.704 53.2259 118.806 53.7901C118.806 53.7901 121.446 52.5948 121.395 52.3882Z" fill="#FFC458"/>
<path opacity="0.1" d="M330.46 106.291C330.46 106.291 315.6 105.165 317.336 118.279C317.336 118.279 316.988 120.596 318.658 121.649C318.658 121.649 318.685 120.665 320.183 121.004C320.718 121.117 321.261 121.15 321.802 121.103C322.525 121.036 323.21 120.677 323.757 120.08C323.757 120.08 327.942 117.905 329.565 109.307C329.565 109.307 330.769 107.433 330.738 106.951L328.227 108.298C328.227 108.298 329.084 110.576 328.411 112.47C328.411 112.47 328.329 108.382 327.848 108.476C327.75 108.476 326.542 109.268 326.542 109.268C326.542 109.268 328.016 113.237 326.905 116.12C326.905 116.12 327.328 111.23 326.08 109.553L324.313 110.851C324.313 110.851 326.037 114.949 324.868 118.294C324.868 118.294 325.169 113.163 323.941 111.166L322.342 112.74C322.342 112.74 323.961 116.779 322.971 119.553C322.971 119.553 322.842 113.582 321.994 113.129C321.994 113.129 320.594 114.683 320.379 115.323C320.379 115.323 321.489 118.274 320.801 119.804C320.801 119.804 320.379 115.825 320.019 115.805C320.019 115.805 318.623 118.442 318.478 120.232C318.546 118.562 318.961 116.944 319.682 115.539C318.877 115.731 318.133 116.215 317.543 116.931C317.543 116.931 317.762 115.067 320.027 114.905C320.027 114.905 321.18 112.903 321.489 112.78C321.489 112.78 319.237 112.544 317.868 113.306C317.868 113.306 319.072 111.55 321.9 112.322L323.464 110.699C323.464 110.699 320.496 110.207 319.241 110.753C319.241 110.753 320.688 109.199 323.89 110.33L325.611 109.036C325.611 109.036 323.081 108.353 321.575 108.599C321.575 108.599 323.163 107.521 326.116 108.687L327.347 107.993C327.347 107.993 325.494 107.536 324.95 107.462C324.407 107.388 324.379 107.202 324.379 107.202C325.553 106.956 326.758 107.126 327.86 107.693C327.86 107.693 330.507 106.498 330.46 106.291Z" fill="#FFC458"/>
<path opacity="0.1" d="M146.424 133.406C146.424 133.406 139.948 116.518 131.704 124.841C131.704 124.841 129.925 125.589 130.011 127.935C130.011 127.935 130.695 127.488 131.184 129.298C131.366 129.938 131.608 130.549 131.903 131.118C132.303 131.89 132.892 132.477 133.581 132.791C133.581 132.791 137.128 136.323 143.89 133.912C143.89 133.912 145.778 134.32 146.087 134.035L143.929 131.935C143.929 131.935 142.755 133.986 141.121 134.168C141.121 134.168 143.921 132.087 143.62 131.605C143.557 131.507 142.447 130.557 142.447 130.557C142.447 130.557 140.409 134.114 137.867 134.296C137.867 134.296 141.465 132.377 142.02 130.188L140.26 128.88C140.26 128.88 138.254 132.776 135.364 133.12C135.364 133.12 139.072 130.951 139.858 128.629L137.988 127.645C137.988 127.645 135.974 131.394 133.565 131.664C133.565 131.664 137.648 128.609 137.546 127.453C137.546 127.453 135.783 126.676 135.235 126.75C135.235 126.75 133.741 129.401 132.334 129.401C132.334 129.401 134.887 126.996 134.731 126.607C134.731 126.607 132.22 126.361 130.898 127.099C132.089 126.355 133.415 126.015 134.742 126.115C134.216 125.325 133.517 124.746 132.732 124.448C132.732 124.448 134.132 123.779 135.349 126.184C135.349 126.184 137.304 126.475 137.535 126.755C137.535 126.755 136.6 124.167 135.407 123.041C135.407 123.041 137.214 123.498 138.039 126.976L139.936 127.921C139.936 127.921 138.845 124.418 137.84 123.312C137.84 123.312 139.623 124.143 140.401 128.231L142.138 129.49C142.138 129.49 141.383 126.376 140.476 124.846C140.476 124.846 141.997 126.066 142.626 129.874L143.71 130.887C143.71 130.887 143.123 128.629 142.928 127.999C142.732 127.37 142.83 127.242 142.83 127.242C143.574 128.41 144.045 129.815 144.191 131.3C144.191 131.3 146.283 133.553 146.424 133.406Z" fill="#FFC458"/>
<path opacity="0.1" d="M296.508 82.434C296.508 82.434 290.036 65.5468 281.788 73.8699C281.788 73.8699 280.012 74.6176 280.095 76.964C280.095 76.964 280.783 76.5213 281.268 78.3266C281.45 78.9691 281.693 79.5818 281.991 80.1515C282.39 80.9218 282.978 81.5073 283.665 81.8191C283.665 81.8191 287.216 85.351 293.974 82.9456C293.974 82.9456 295.863 83.3489 296.175 83.0636L294.028 80.9583C294.028 80.9583 292.855 83.0145 291.224 83.1965C291.224 83.1965 294.021 81.1108 293.719 80.6287C293.657 80.5303 292.546 79.5809 292.546 79.5809C292.546 79.5809 290.513 83.1374 287.967 83.3194C287.967 83.3194 291.569 81.401 292.124 79.2169L290.337 77.9183C290.337 77.9183 288.334 81.8093 285.441 82.1585C285.441 82.1585 289.148 79.9843 289.938 77.6625L288.065 76.6787C288.065 76.6787 286.051 80.4319 283.646 80.6976C283.646 80.6976 287.724 77.6428 287.623 76.4917C287.623 76.4917 285.863 75.7096 285.315 75.7883C285.315 75.7883 283.821 78.4348 282.41 78.4348C282.41 78.4348 284.967 76.0294 284.811 75.6407C284.811 75.6407 282.3 75.3948 280.975 76.1327C282.166 75.3878 283.491 75.0486 284.819 75.1488C284.294 74.3583 283.596 73.7785 282.813 73.4813C282.813 73.4813 284.213 72.8123 285.429 75.2177C285.429 75.2177 287.384 75.5128 287.615 75.7932C287.615 75.7932 286.68 73.2009 285.484 72.0744C285.484 72.0744 287.29 72.5368 288.115 76.0343L290.016 76.9787C290.016 76.9787 288.925 73.4714 287.92 72.3646C287.92 72.3646 289.703 73.196 290.477 77.2837L292.218 78.543C292.218 78.543 291.459 75.4341 290.552 73.8994C290.552 73.8994 292.077 75.1193 292.703 78.9267L293.786 79.94C293.786 79.94 293.203 77.6822 293.004 77.0525C292.804 76.4229 292.906 76.2999 292.906 76.2999C293.648 77.4689 294.118 78.8736 294.263 80.3581C294.263 80.3581 296.387 82.5914 296.508 82.434Z" fill="#FFC458"/>
<path opacity="0.1" d="M317.191 165.965C317.191 165.965 310.719 149.073 302.46 157.396C302.46 157.396 300.684 158.144 300.766 160.49C300.766 160.49 301.455 160.047 301.94 161.853C302.121 162.495 302.362 163.108 302.659 163.678C303.058 164.448 303.646 165.033 304.333 165.345C304.333 165.345 307.884 168.882 314.645 166.472C314.645 166.472 316.53 166.88 316.843 166.59L314.685 164.489C314.685 164.489 313.511 166.545 311.877 166.727C311.877 166.727 314.673 164.642 314.372 164.16C314.309 164.061 313.199 163.112 313.199 163.112C313.199 163.112 311.165 166.668 308.619 166.855C308.619 166.855 312.221 164.932 312.776 162.748L311.012 161.439C311.012 161.439 309.01 165.335 306.116 165.68C306.116 165.68 309.824 163.505 310.614 161.184L308.74 160.2C308.74 160.2 306.726 163.948 304.321 164.219C304.321 164.219 308.404 161.164 308.302 160.008C308.302 160.008 306.539 159.226 305.991 159.304C305.991 159.304 304.497 161.951 303.085 161.951C303.085 161.951 305.643 159.545 305.487 159.157C305.487 159.157 302.976 158.911 301.65 159.649C302.843 158.904 304.169 158.565 305.498 158.665C304.973 157.873 304.274 157.293 303.488 156.997C303.488 156.997 304.888 156.323 306.105 158.734C306.105 158.734 308.06 159.024 308.291 159.304C308.291 159.304 307.356 156.717 306.163 155.586C306.163 155.586 307.97 156.048 308.795 159.545L310.692 160.49C310.692 160.49 309.601 156.983 308.596 155.881C308.596 155.881 310.379 156.707 311.153 160.8L312.893 162.054C312.893 162.054 312.135 158.945 311.228 157.411C311.228 157.411 312.753 158.631 313.382 162.443L314.466 163.427C314.466 163.427 313.879 161.169 313.683 160.539C313.488 159.91 313.586 159.787 313.586 159.787C314.329 160.954 314.799 162.36 314.943 163.845C314.943 163.845 317.07 166.112 317.191 165.965Z" fill="#FFC458"/>
<path opacity="0.1" d="M78.9762 385.735C83.9416 385.735 87.9668 385.169 87.9668 384.471C87.9668 383.772 83.9416 383.206 78.9762 383.206C74.0108 383.206 69.9855 383.772 69.9855 384.471C69.9855 385.169 74.0108 385.735 78.9762 385.735Z" fill="#FFC458"/>
<path opacity="0.1" d="M20.0383 364.248C25.0037 364.248 29.029 363.682 29.029 362.984C29.029 362.286 25.0037 361.72 20.0383 361.72C15.0729 361.72 11.0477 362.286 11.0477 362.984C11.0477 363.682 15.0729 364.248 20.0383 364.248Z" fill="#FFC458"/>
<path opacity="0.1" d="M123.902 400.005C128.867 400.005 132.893 399.439 132.893 398.741C132.893 398.043 128.867 397.477 123.902 397.477C118.937 397.477 114.911 398.043 114.911 398.741C114.911 399.439 118.937 400.005 123.902 400.005Z" fill="#FFC458"/>
<path opacity="0.1" d="M354.124 368.921C359.089 368.921 363.114 368.355 363.114 367.657C363.114 366.959 359.089 366.393 354.124 366.393C349.158 366.393 345.133 366.959 345.133 367.657C345.133 368.355 349.158 368.921 354.124 368.921Z" fill="#FFC458"/>
<path opacity="0.1" d="M279.309 362.787C284.274 362.787 288.299 362.221 288.299 361.523C288.299 360.825 284.274 360.259 279.309 360.259C274.343 360.259 270.318 360.825 270.318 361.523C270.318 362.221 274.343 362.787 279.309 362.787Z" fill="#FFC458"/>
<path opacity="0.1" d="M230.91 392.705C236.783 392.705 241.543 391.677 241.543 390.408C241.543 389.139 236.783 388.111 230.91 388.111C225.037 388.111 220.277 389.139 220.277 390.408C220.277 391.677 225.037 392.705 230.91 392.705Z" fill="#FFC458"/>
<path d="M235.654 367.318C235.654 367.318 220.848 376.939 228.497 388.273C228.497 388.273 229.217 390.732 231.297 390.56C231.297 390.56 230.883 389.606 232.47 388.844C233.035 388.569 233.572 388.21 234.07 387.776C234.742 387.191 235.245 386.347 235.501 385.371C235.501 385.371 238.528 380.274 236.182 370.845C236.182 370.845 236.487 368.178 236.221 367.746L234.422 370.85C234.422 370.85 236.279 372.419 236.494 374.726C236.494 374.726 234.539 370.854 234.148 371.282C234.062 371.371 233.256 372.979 233.256 372.979C233.256 372.979 236.479 375.729 236.717 379.301C236.717 379.301 234.903 374.298 232.944 373.585L231.821 376.103C231.821 376.103 235.341 378.799 235.732 382.852C235.732 382.852 233.687 377.712 231.598 376.674L230.773 379.335C230.773 379.335 234.168 382.05 234.48 385.425C234.48 385.425 231.641 379.783 230.621 379.96C230.621 379.96 229.979 382.459 230.065 383.231C230.065 383.231 232.463 385.248 232.506 387.23C232.506 387.23 230.292 383.713 229.952 383.944C229.952 383.944 229.811 387.481 230.492 389.321C230.492 389.321 229.318 386.694 229.51 383.944C228.824 384.707 228.331 385.706 228.09 386.817C228.09 386.817 227.453 384.874 229.553 383.083C229.553 383.083 229.752 380.334 229.995 379.994C229.995 379.994 227.723 381.391 226.757 383.103C226.757 383.103 227.113 380.55 230.194 379.281L230.976 376.585C230.976 376.585 227.895 378.228 226.945 379.674C226.945 379.674 227.629 377.141 231.219 375.926L232.283 373.466C232.283 373.466 229.545 374.627 228.208 375.926C228.208 375.926 229.244 373.747 232.611 372.743L233.475 371.194C233.475 371.194 231.489 372.084 230.933 372.404C230.378 372.724 230.269 372.566 230.269 372.566C231.284 371.486 232.517 370.781 233.831 370.53C233.831 370.53 235.791 367.485 235.654 367.318Z" fill="#FFC458"/>
<path d="M279.598 185.593C277.04 176.852 262.962 176.03 256.853 178.258C252.513 179.847 243.362 181.638 238.473 182.538L238.157 182.159C238.79 181.923 238.806 181.343 238.727 180.482C238.682 179.347 238.695 178.21 238.767 177.078C241.762 178.249 244.429 175.479 244.429 175.479C247.949 173.512 247.002 165.09 247.675 162.788C248.18 161.066 248.723 150.923 248.966 145.866H249.016L249.044 144.169C249.079 143.436 249.095 143.008 249.095 143.008C249.095 143.008 249.439 130.642 250.111 128.138C250.737 125.836 251.246 114.237 251.324 112.397C251.324 112.24 251.324 112.156 251.324 112.156L251.273 111.084C251.308 110.301 251.324 109.431 251.32 108.516C251.32 104.31 250.972 99.0121 250.929 98.1562C250.929 98.0332 250.929 97.8856 250.929 97.7085C250.956 95.9131 250.776 86.921 244.695 83.5219C242.454 82.2626 239.76 80.7623 237.151 79.3013C236.479 71.9965 234.942 64.731 235.075 57.3721C235.075 56.2653 235.153 55.1585 235.239 54.0566C235.239 54.3764 235.212 54.701 235.208 55.0404C235.208 55.7537 235.208 56.4719 235.208 57.1852C235.439 47.9816 238.203 38.7288 237.945 29.7219C237.922 30.6024 237.871 31.4879 237.805 32.3733C237.94 29.3268 237.686 26.2728 237.054 23.3271C236.819 22.2892 236.502 21.2168 235.826 20.5232C235.186 19.9646 234.453 19.5993 233.683 19.4558C231.832 18.86 229.952 18.4196 228.055 18.1375C227.767 17.0276 227.339 15.983 226.788 15.0434C222.823 8.19603 216.949 1.76187 210.004 0.286147C206.519 -0.451715 202.511 0.163169 200.141 3.29662C199.893 3.57189 199.661 3.8677 199.445 4.18206C198.17 6.09558 197.622 8.60923 196.316 10.5178C196.23 10.6457 196.132 10.7638 196.038 10.8868C193.481 13.7644 189.496 14.3646 186.653 16.9471C186.152 17.4107 185.682 17.9257 185.249 18.4867C184.103 19.9147 183.076 21.4854 182.183 23.1746C180.904 25.4374 179.59 27.7936 179.183 30.4942C178.366 35.9052 181.295 41.0358 181.839 46.4812C183.051 58.6658 172.332 69.4779 174.362 81.5002C174.903 84.4537 176.099 87.1536 177.811 89.2871C173.63 94.0487 170.072 98.6678 170.072 98.6678V98.9432H169.411L169.477 99.927H169.411L169.774 105.264L169.411 113.036C169.411 113.036 169.411 113.12 169.411 113.277V113.317V113.528C169.411 113.528 169.411 113.612 169.411 113.769H169.434C169.555 116.618 170.036 126.859 170.607 129.018C171.28 131.522 171.62 143.889 171.62 143.889C171.62 143.889 172.363 161.366 173.044 163.678C173.724 165.99 172.758 174.387 176.29 176.37C177.323 177.366 178.546 178.004 179.837 178.219C179.657 180.059 179.77 181.392 180.353 181.81C180.602 181.994 180.885 182.096 181.174 182.105C180.934 182.552 180.721 183.021 180.537 183.507C179.135 183.323 177.758 182.915 176.438 182.292C172.645 180.325 160.056 175.897 156.4 179.011C152.743 182.125 143.944 184.948 148.007 197.482C152.071 210.016 153.963 210.331 153.963 210.331C155.214 211.473 156.311 212.86 157.213 214.438C158.433 216.745 169.802 222.024 172.645 222.024C173.853 222 175.062 222.076 176.262 222.25C176.262 222.25 173.177 225.654 173.587 227.631C173.998 229.609 172.649 245.438 172.649 245.438C172.649 245.438 175.777 249.403 177.115 244.204L177.162 244.282C177.412 244.71 178.765 246.644 181.311 244.204C182.353 243.209 183.46 242.327 184.619 241.567L196.946 239.373C198.231 239.272 199.519 239.261 200.806 239.339C202.761 239.54 204.681 238.084 205.889 236.958C208.443 238.178 211.314 239.511 212.678 239.998C215.447 240.982 228.173 245.276 231.149 243.933C231.767 243.624 232.317 243.131 232.752 242.497L235.591 242.61L234.261 242.944C234.261 242.944 236.85 242.999 240.37 243.058L240.221 243.166L244.636 243.117C251.097 243.19 258.355 243.215 259.309 242.944C260.803 242.526 268.566 242.821 270.854 242.944H271.491C271.491 242.944 280.02 240.805 276.501 229.919C273.795 221.556 265.477 219.126 261.785 218.457C262.825 218.197 263.721 217.995 264.315 217.877C266.892 217.385 271.898 214.433 272.305 213.425C272.711 212.417 276.907 209.49 277.991 207.822C279.074 206.155 282.167 194.334 279.598 185.593ZM208.952 210.055L208.533 210.228L208.252 210.346L207.712 211.015C207.282 210.651 206.82 210.267 206.339 209.873C207.188 209.937 208.06 210.001 208.952 210.055Z" fill="url(#paint0_linear)"/>
<path d="M233.886 158.188C233.886 158.188 239.869 177.864 243.272 175.897C246.674 173.929 245.751 165.566 246.4 163.274C247.049 160.982 247.769 143.598 247.769 143.598C247.769 143.598 248.097 131.3 248.747 128.811C249.349 126.524 249.838 114.988 249.92 113.173C249.92 113.016 249.92 112.932 249.92 112.932L249.275 98.667L245.622 97.5208L237.151 101.456L235.978 109.882L235.521 113.173L235.325 114.575L233.886 158.188Z" fill="#BE6F72"/>
<path opacity="0.1" d="M235.857 154.892C235.857 154.892 241.567 160.77 243.287 161.287C245.008 161.803 246.064 166.388 246.064 166.388" fill="black"/>
<path d="M187.095 159.049C187.095 159.049 181.111 178.725 177.709 176.757C174.307 174.79 175.23 166.427 174.581 164.135C173.931 161.843 173.212 144.459 173.212 144.459C173.212 144.459 172.883 132.161 172.234 129.672C171.632 127.384 171.143 115.849 171.061 114.034C171.061 113.877 171.061 113.793 171.061 113.793L171.71 99.5277L175.363 98.3816L183.833 102.317L185.006 110.743L185.464 114.034L185.66 115.436L187.095 159.049Z" fill="#BE6F72"/>
<path d="M226.057 53.7508H212.702V79.9351H226.057V53.7508Z" fill="#3E373A"/>
<path opacity="0.1" d="M226.057 53.7508H212.702V79.9351H226.057V53.7508Z" fill="black"/>
<path d="M184.748 178.646C184.748 178.646 180.185 184.957 181.878 186.104C183.571 187.25 194.525 208.731 194.525 208.731C194.525 208.731 230.503 214.305 237.288 205.942C244.073 197.58 243.936 182.641 243.936 182.641C243.936 182.641 238.485 184.116 237.891 183.314C237.296 182.513 234.031 178.646 234.031 178.646C234.031 178.646 187.877 175.124 184.748 178.646Z" fill="#4B4B5B"/>
<path opacity="0.02" d="M184.748 178.646C184.748 178.646 180.185 184.957 181.878 186.104C183.571 187.25 194.525 208.731 194.525 208.731C194.525 208.731 230.503 214.305 237.288 205.942C244.073 197.58 243.936 182.641 243.936 182.641C243.936 182.641 238.485 184.116 237.891 183.314C237.296 182.513 234.031 178.646 234.031 178.646C234.031 178.646 187.877 175.124 184.748 178.646Z" fill="black"/>
<path d="M249.517 98.8735L237.785 110.679L234.238 111.004L232.936 111.122L211.063 113.139L188.381 111.053L185.006 110.743L180.705 110.35L171.71 99.5278C171.71 99.5278 178.077 90.9489 183.653 85.1591C185.851 82.8718 187.928 81.0222 189.441 80.2942L189.699 80.181C190.651 79.7141 191.501 78.9688 192.179 78.0068C196.582 72.2957 200.653 58.2026 200.653 58.2026C200.653 58.2026 220.077 45.5802 217.731 62.1378C215.385 78.6955 226.464 74.6028 226.464 74.6028L230.116 76.6983L231.559 77.5296L235.239 79.6498L243.542 84.4409C250.057 88.2139 249.517 98.8735 249.517 98.8735Z" fill="#BE6F72"/>
<path opacity="0.1" d="M210.152 71.6858C219.8 71.6858 227.621 61.8479 227.621 49.7122C227.621 37.5766 219.8 27.7387 210.152 27.7387C200.504 27.7387 192.683 37.5766 192.683 49.7122C192.683 61.8479 200.504 71.6858 210.152 71.6858Z" fill="black"/>
<path opacity="0.1" d="M249.544 114.526H171.061C171.061 114.369 171.061 114.285 171.061 114.285L171.71 100.02C171.71 100.02 178.077 91.4408 183.653 85.651L232.928 83.1915L235.22 80.1515L243.522 84.9427C250.041 88.7107 249.517 99.3703 249.517 99.3703C249.517 99.3703 250.409 111.722 249.544 114.526Z" fill="black"/>
<path d="M249.544 114.034H171.061C171.061 113.877 171.061 113.793 171.061 113.793L171.71 99.5278C171.71 99.5278 178.077 90.9489 183.653 85.1591L232.928 82.6996L235.22 79.6596L243.522 84.4508C250.041 88.2188 249.517 98.8785 249.517 98.8785C249.517 98.8785 250.409 111.23 249.544 114.034Z" fill="#E7C7CA"/>
<path opacity="0.1" d="M197.571 74.0322C197.571 74.0322 209.953 93.8757 226.444 73.6239C242.935 53.372 228.27 118.796 228.27 118.796L192.683 124.108L197.571 74.0322Z" fill="black"/>
<path d="M197.571 75.016C197.571 75.016 209.953 94.8596 226.444 74.6077C242.935 54.3559 228.27 119.78 228.27 119.78L192.683 125.092L197.571 75.016Z" fill="#E7C7CA"/>
<path opacity="0.1" d="M231.54 78.4987L232.85 103.63L234.254 111.993L235.325 118.388C235.325 118.388 238.063 167.578 237.28 170.038C236.498 172.497 237.672 174.465 237.836 175.774C238 177.082 237.672 180.368 237.801 181.844C237.93 183.319 237.801 183.974 234.805 183.447C231.809 182.921 227.633 182.006 227.633 182.006C227.633 182.006 217.074 182.99 213.425 181.352C209.777 179.714 202.867 179.709 202.867 179.709C202.867 179.709 192.437 180.038 189.05 179.547C185.663 179.055 183.833 184.795 181.62 183.152C179.406 181.509 184.224 165.611 185.789 161.016C187.353 156.422 183.704 144.783 183.704 144.783L188.397 112.037L189.441 104.614V81.278L189.699 81.1649C190.651 80.6979 191.501 79.9526 192.179 78.9906L193.352 102.474L230.112 104.117V77.6871" fill="black"/>
<path d="M231.54 77.5149L232.85 102.646L234.254 111.009L235.325 117.404C235.325 117.404 238.063 166.595 237.28 169.054C236.498 171.514 237.672 173.481 237.836 174.79C238 176.098 237.672 179.384 237.801 180.86C237.93 182.336 237.801 182.99 234.805 182.463C231.809 181.937 227.633 181.022 227.633 181.022C227.633 181.022 217.074 182.006 213.425 180.368C209.777 178.73 202.867 178.725 202.867 178.725C202.867 178.725 192.437 179.055 189.05 178.563C185.663 178.071 183.833 183.811 181.62 182.168C179.406 180.525 184.224 164.627 185.789 160.032C187.353 155.438 183.704 143.8 183.704 143.8L188.397 111.053L189.441 103.63V80.2942L189.699 80.181C190.651 79.7141 191.501 78.9688 192.179 78.0068L193.352 101.49L230.112 103.133V76.7032" fill="#E7C7CA"/>
<path opacity="0.1" d="M235.767 25.0676C235.544 24.0395 235.235 22.9721 234.594 22.2834C233.981 21.7303 233.274 21.3663 232.529 21.2209C230.745 20.6309 228.932 20.1938 227.101 19.9124C226.839 18.8202 226.444 17.7861 225.928 16.8478C222.095 10.0398 216.425 3.62044 209.753 2.16931C206.261 1.40685 202.213 2.0906 199.977 5.55363C198.749 7.45732 198.221 9.98081 196.981 11.8501C194.592 15.4803 190.278 15.928 187.267 18.7368C185.66 20.2125 184.494 22.3523 183.356 24.4281C182.124 26.6762 180.857 29.0177 180.466 31.7035C179.684 37.0702 182.504 42.186 183.024 47.6019C184.197 59.7176 173.873 70.4658 175.824 82.4192C176.962 89.3895 182.081 94.2988 187.376 96.7878C189.242 97.6683 191.373 98.5439 192.245 100.797C192.636 101.781 192.703 102.917 193.07 103.911C194.306 107.226 198.369 107.354 200.551 104.939C202.734 102.523 203.422 98.6177 203.68 94.9727C204.728 79.0545 199.66 63.3282 200.25 47.3707C200.426 42.5451 201.506 37.0702 204.943 34.8861C209.569 31.9347 215.134 36.8537 220.226 35.9142C222.636 43.2886 223.147 51.4274 221.689 59.1864C220.879 63.4315 219.479 67.5488 219.377 71.9268C219.225 78.5921 222.084 84.682 224.555 90.575C225.085 91.677 225.44 92.8984 225.599 94.1709C225.638 95.462 225.447 96.7477 225.04 97.934C223.644 102.661 221.235 107.049 220.961 112.081C220.881 112.669 220.986 113.272 221.255 113.764C221.53 114.091 221.886 114.293 222.264 114.334C226.487 115.244 230.14 110.537 232.201 105.809C234.498 100.588 235.837 94.786 236.119 88.8288C236.545 78.8135 233.691 68.9606 233.866 58.9355C234.07 47.538 238.164 36.0618 235.767 25.0676Z" fill="black"/>
<path d="M236.158 24.5757C235.935 23.5476 235.626 22.4802 234.985 21.7915C234.373 21.2384 233.665 20.8744 232.92 20.729C231.136 20.139 229.323 19.7018 227.492 19.4205C227.231 18.3282 226.835 17.2942 226.319 16.3559C222.486 9.54792 216.816 3.12852 210.144 1.6774C206.652 0.914938 202.605 1.59869 200.368 5.06172C199.14 6.96541 198.612 9.4889 197.372 11.3581C194.983 14.9884 190.669 15.4361 187.658 18.2449C186.051 19.7206 184.885 21.8604 183.747 23.9362C182.515 26.1843 181.248 28.5257 180.857 31.2116C180.075 36.5783 182.895 41.6941 183.415 47.11C184.588 59.2257 174.264 69.9739 176.215 81.9273C177.353 88.8976 182.472 93.8069 187.767 96.2959C189.633 97.1764 191.764 98.052 192.636 100.305C193.027 101.289 193.094 102.425 193.461 103.419C194.697 106.734 198.76 106.862 200.942 104.447C203.125 102.032 203.813 98.1258 204.071 94.4808C205.119 78.5626 200.051 62.8363 200.641 46.8788C200.817 42.0532 201.897 36.5783 205.334 34.3942C209.96 31.4427 215.525 36.3618 220.617 35.4223C223.027 42.7967 223.538 50.9355 222.08 58.6945C221.27 62.9396 219.87 67.0569 219.768 71.4349C219.616 78.1002 222.475 84.1901 224.946 90.0831C225.477 91.1851 225.831 92.4065 225.99 93.679C226.029 94.9701 225.838 96.2558 225.431 97.4421C224.035 102.169 221.626 106.557 221.352 111.589C221.272 112.177 221.377 112.78 221.646 113.272C221.921 113.6 222.277 113.801 222.655 113.842C226.878 114.752 230.531 110.045 232.592 105.318C234.889 100.096 236.228 94.2941 236.51 88.3368C236.936 78.3216 234.082 68.4687 234.258 58.4436C234.461 47.0461 238.555 35.5699 236.158 24.5757Z" fill="#3E373A"/>
<path d="M227.519 242.378L243.033 243.003L240.808 228.531L228.923 229.952L227.519 242.378Z" fill="#C3C7D9"/>
<path d="M275.589 208.077C274.545 209.715 270.506 212.667 270.115 213.65C269.723 214.634 264.902 217.586 262.422 218.078C259.943 218.57 252.125 220.704 250.69 221.851C249.662 222.677 241.406 225.294 235.982 226.745C234.513 227.182 233.026 227.519 231.528 227.753C229.181 227.916 203.504 216.931 203.504 216.931L208.455 210.537L208.729 210.419C210.129 209.823 216.597 207.074 220.187 205.765C224.231 204.289 228.923 198.224 228.923 198.224C228.923 198.224 235.83 195.273 236.745 194.943C237.66 194.614 234.398 183.467 234.398 183.467C234.398 183.467 249.388 180.85 255.254 178.632C261.12 176.413 274.678 177.235 277.154 185.927C279.629 194.619 276.649 206.439 275.589 208.077Z" fill="#4B4B5B"/>
<path d="M207.282 235.786C207.282 235.786 204.286 239.722 201.287 239.397C198.287 239.072 187.799 240.381 187.799 240.381C185.898 241.334 184.118 242.632 182.515 244.232C180.063 246.662 178.761 244.724 178.519 244.311L178.476 244.232C177.169 249.402 174.174 245.462 174.174 245.462C174.174 245.462 175.476 229.721 175.077 227.753C174.678 225.786 177.654 222.406 177.654 222.406L181.174 221.28L190.09 218.407L202.867 223.981L207.282 235.786Z" fill="#E7C7CA"/>
<path opacity="0.1" d="M181.158 221.28L178.519 244.311L178.476 244.232C177.169 249.402 174.174 245.462 174.174 245.462C174.174 245.462 175.476 229.721 175.077 227.753C174.678 225.786 177.654 222.406 177.654 222.406L181.158 221.28Z" fill="black"/>
<path opacity="0.1" d="M199.609 155.768C199.609 155.768 206.515 158.719 212.514 155.768H199.609Z" fill="black"/>
<path opacity="0.1" d="M223.186 161.346C223.186 161.346 226.053 163.146 228.27 161.346H223.186Z" fill="black"/>
<path opacity="0.1" d="M223.186 165.616C223.186 165.616 228.008 166.427 228.923 164.789L223.186 165.616Z" fill="black"/>
<path opacity="0.1" d="M221.622 174.79C221.622 174.79 230.679 173.314 232.928 171.346L221.622 174.79Z" fill="black"/>
<path opacity="0.1" d="M193.985 171.346C193.985 171.346 199.069 174.952 202.851 174.79L193.985 171.346Z" fill="black"/>
<path opacity="0.1" d="M235.978 226.745C234.509 227.182 233.022 227.519 231.524 227.753C229.178 227.916 203.5 216.931 203.5 216.931L208.451 210.537L208.725 210.419C209.507 211.112 210.148 211.707 210.606 212.16C212.761 214.295 214.841 211.506 215.623 211.506C216.405 211.506 223.183 218.555 223.183 218.555C223.183 218.555 229.44 220.36 230.484 221.998C231.528 223.636 235.177 223.312 235.826 224.458C236.021 224.812 236.045 225.682 235.978 226.745Z" fill="black"/>
<path d="M187.799 184.136C187.799 184.136 181.471 184.593 177.823 182.66C174.174 180.727 162.051 176.265 158.531 179.399C155.012 182.532 146.537 185.302 150.448 197.767C154.358 210.232 156.185 210.556 156.185 210.556C157.395 211.698 158.451 213.076 159.313 214.639C160.486 216.936 171.436 222.18 174.174 222.18C176.911 222.18 181.733 222.18 188.51 228.083C195.288 233.986 201.416 234.645 201.416 234.645C201.416 234.645 210.019 239.072 212.698 240.056C215.377 241.04 227.617 245.3 230.488 243.991C233.358 242.683 235.181 234.478 235.181 234.478C235.181 234.478 236.483 227.099 235.83 225.953C235.177 224.807 231.528 225.132 230.488 223.494C229.447 221.855 223.186 220.05 223.186 220.05C223.186 220.05 216.425 212.996 215.643 212.996C214.861 212.996 212.78 215.78 210.625 213.65C206.333 209.651 201.823 206.035 197.13 202.828C192.179 199.547 187.799 184.136 187.799 184.136Z" fill="#4B4B5B"/>
<path opacity="0.1" d="M175.077 188.893C176.204 188.603 177.368 188.645 178.48 189.014C179.592 189.384 180.621 190.071 181.487 191.023C184.615 194.304 195.143 200.89 195.143 200.89" fill="black"/>
<path opacity="0.1" d="M253.299 188.686C253.299 188.686 239.349 191.342 236.745 194.948L253.299 188.686Z" fill="black"/>
<path d="M269.332 243.003H268.718C266.513 242.904 259.04 242.609 257.6 243.003C255.907 243.495 233.483 243.003 233.483 243.003L237.867 241.856C237.867 241.856 236.24 234.684 237.273 234.089C237.273 234.089 231.407 229.229 235.83 225.948C240.253 222.667 245.02 224.049 245.02 224.049L256.122 219.317L258.253 218.407C258.253 218.407 270.768 219.229 274.154 230.051C277.541 240.873 269.332 243.003 269.332 243.003Z" fill="#E7C7CA"/>
<path opacity="0.1" d="M269.332 243.003H268.718C272.359 239.225 280.595 227.724 256.122 219.342L258.254 218.432C258.254 218.432 270.768 219.253 274.154 230.075C277.541 240.897 269.332 243.003 269.332 243.003Z" fill="black"/>
<path d="M246.326 230.252C246.704 230.252 247.01 229.867 247.01 229.392C247.01 228.916 246.704 228.531 246.326 228.531C245.948 228.531 245.642 228.916 245.642 229.392C245.642 229.867 245.948 230.252 246.326 230.252Z" fill="#4B4B5B"/>
<path d="M242.349 231.674C242.727 231.674 243.033 231.289 243.033 230.813C243.033 230.338 242.727 229.952 242.349 229.952C241.971 229.952 241.664 230.338 241.664 230.813C241.664 231.289 241.971 231.674 242.349 231.674Z" fill="#4B4B5B"/>
<g opacity="0.1">
<path opacity="0.1" d="M222.971 48.9006C223.123 43.49 222.358 38.1007 220.727 33.0907C215.643 34.045 210.074 29.1111 205.444 32.0626C202.018 34.2466 200.942 39.7216 200.751 44.5472C200.704 45.8212 200.696 47.0953 200.716 48.3693C200.716 47.9168 200.716 47.4593 200.751 47.0067C200.931 42.1811 202.006 36.7062 205.444 34.5221C210.074 31.5707 215.635 36.4897 220.727 35.5502C222.108 39.7939 222.869 44.3167 222.971 48.9006Z" fill="black"/>
<path opacity="0.1" d="M183.575 48.0004C183.642 46.9285 183.625 45.851 183.524 44.7833C183.11 40.4545 181.229 36.3176 180.889 32.097C180.451 37.1883 183.028 42.0778 183.524 47.2429C183.575 47.5085 183.575 47.7446 183.575 48.0004Z" fill="black"/>
<path opacity="0.1" d="M204.181 92.1442C203.938 95.7942 203.254 99.695 201.052 102.115C198.85 104.535 194.795 104.403 193.571 101.087C193.18 100.103 193.121 98.9571 192.742 97.9733C191.874 95.7204 189.738 94.8448 187.873 93.9643C182.574 91.4703 177.463 86.5856 176.325 79.5956C176.223 78.9624 176.154 78.3216 176.118 77.6772C176.021 79.1415 176.091 80.6156 176.325 82.0552C177.463 89.0255 182.582 93.9298 187.873 96.4238C189.738 97.3043 191.874 98.1799 192.742 100.433C193.133 101.417 193.199 102.553 193.571 103.547C194.803 106.862 198.866 106.99 201.052 104.575C203.238 102.159 203.919 98.2537 204.181 94.6037C204.3 92.6826 204.34 90.7551 204.302 88.8287C204.302 89.9454 204.251 91.0472 204.181 92.1442Z" fill="black"/>
<path opacity="0.1" d="M234.387 56.112C234.387 56.8252 234.387 57.5336 234.387 58.2419C234.606 49.0924 237.273 39.8937 237.011 30.9361C236.807 39.2198 234.535 47.6905 234.387 56.112Z" fill="black"/>
<path opacity="0.1" d="M225.994 93.1231C226.09 92.5395 226.121 91.9416 226.084 91.3473C225.927 90.0743 225.572 88.8525 225.04 87.7515C222.78 82.3405 220.203 76.8016 219.898 70.7954C219.898 71.0512 219.87 71.2873 219.866 71.5628C219.71 78.2232 222.569 84.318 225.04 90.211C225.46 91.1238 225.781 92.1032 225.994 93.1231Z" fill="black"/>
<path opacity="0.1" d="M236.635 86.0052C236.343 91.9648 234.995 97.7667 232.689 102.986C230.625 107.713 226.976 112.421 222.748 111.511C222.37 111.47 222.014 111.266 221.739 110.935C221.66 110.822 221.598 110.692 221.556 110.551C221.509 110.935 221.47 111.324 221.446 111.717C221.365 112.303 221.471 112.905 221.739 113.395C222.014 113.726 222.37 113.929 222.748 113.97C226.976 114.88 230.625 110.173 232.689 105.445C234.995 100.226 236.343 94.4243 236.635 88.4647C236.682 87.3137 236.686 86.1675 236.659 85.0214C236.651 85.3509 236.651 85.6756 236.635 86.0052Z" fill="black"/>
</g>
<path opacity="0.1" d="M237.273 234.089C237.273 234.089 247.171 239.313 253.698 227.753" stroke="black" stroke-miterlimit="10"/>
<path opacity="0.1" d="M239.22 243.219C239.22 243.219 247.304 236.608 257.6 243.003" stroke="black" stroke-miterlimit="10"/>
<path opacity="0.1" d="M185.112 241.719C185.112 241.719 188.507 232.087 197.571 239.431" stroke="black" stroke-miterlimit="10"/>
<path opacity="0.1" d="M174.107 99.2818L181.029 91.4113C181.029 91.4113 207.868 89.1977 208.979 100.674C208.979 100.674 218.494 87.0678 238.505 90.0979L246.971 98.5784L223.57 111.496L200.829 121.418L184.08 111.988L174.107 99.2818Z" fill="black"/>
<path d="M174.107 99.7737L181.029 91.9032C181.029 91.9032 207.868 89.6896 208.979 101.166C208.979 101.166 218.494 87.5596 238.505 90.5898L246.971 99.0703L223.57 111.988L200.829 121.91L184.08 112.48L174.107 99.7737Z" fill="#D5D6DB"/>
<path opacity="0.1" d="M171.045 100.758L174.107 146.835L206.566 148.886L205.158 103.006L205.131 102.233L171.045 100.758Z" fill="black"/>
<path d="M171.045 99.7737L174.107 145.851L206.566 147.902L205.158 102.022L205.131 101.249L171.045 99.7737Z" fill="#FFC458"/>
<path opacity="0.1" d="M248.457 99.7737L214.974 106.09V152.373L247.695 146.426L248.457 99.7737Z" fill="black"/>
<path d="M248.457 98.7899L214.974 105.106V151.39L247.695 145.442L248.457 98.7899Z" fill="#FFC458"/>
<path opacity="0.3" d="M240.562 110.084L222.475 112.613L222.87 120.365L240.55 117.935L240.562 110.084Z" fill="white"/>
<path d="M175.867 170.525L177.709 176.757C177.709 176.757 180.447 179.709 183.442 178.233C186.438 176.757 189.05 176.024 190.352 174.588C191.655 173.152 193.481 165.935 193.481 165.935C193.481 165.935 195.307 158.065 197.13 156.097C198.952 154.13 203.778 127.021 197.13 129.672C190.481 132.323 185.398 156.919 185.398 156.919C185.398 156.919 184.224 158.719 182.531 158.886C180.838 159.054 177.447 158.557 176.794 160.362C176.141 162.167 173.912 166.919 175.867 170.525Z" fill="#BE6F72"/>
<path opacity="0.1" d="M214.974 106.085C213.26 106.571 211.479 106.545 209.774 106.011C208.069 105.476 206.487 104.447 205.154 103.006L206.566 148.881C206.566 148.881 209.89 153.406 214.974 152.373V106.085Z" fill="black"/>
<path d="M214.974 105.101C213.26 105.587 211.479 105.562 209.774 105.027C208.069 104.492 206.487 103.463 205.154 102.022L206.566 147.897C206.566 147.897 209.89 152.423 214.974 151.39V105.101Z" fill="#FFC458"/>
<path opacity="0.1" d="M214.974 105.101C213.26 105.587 211.479 105.562 209.774 105.027C208.069 104.492 206.487 103.463 205.154 102.022L206.566 147.897C206.566 147.897 209.89 152.423 214.974 151.39V105.101Z" fill="black"/>
<path opacity="0.1" d="M215.756 99.9311C215.756 99.9311 229.377 94.6923 232.928 95.4302L215.756 99.9311Z" fill="black"/>
<path opacity="0.1" d="M200.52 97.6438C200.52 97.6438 187.318 93.7085 185.112 94.8252L200.52 97.6438Z" fill="black"/>
<path opacity="0.1" d="M224.344 100.585C224.344 100.585 233.452 96.3845 236.745 98.3816L224.344 100.585Z" fill="black"/>
<path opacity="0.1" d="M219.757 205.967C221.168 204.634 222.67 203.46 224.246 202.46C226.593 201.038 230.894 197.349 230.894 197.349" fill="black"/>
<path opacity="0.1" d="M185.112 155.768C185.112 155.768 179.399 161.646 177.682 162.162C175.965 162.679 174.905 167.264 174.905 167.264" fill="black"/>
<path d="M245.098 169.649L243.276 175.897C243.276 175.897 240.538 178.848 237.539 177.372C234.539 175.897 231.935 175.164 230.628 173.727C229.322 172.291 227.5 165.075 227.5 165.075C227.5 165.075 225.678 157.204 223.851 155.236C222.025 153.269 217.203 126.16 223.851 128.811C230.499 131.462 235.583 156.058 235.583 156.058C235.583 156.058 236.756 157.858 238.45 158.025C240.143 158.193 243.534 157.696 244.187 159.501C244.84 161.307 247.053 166.058 245.098 169.649Z" fill="#BE6F72"/>
<path opacity="0.1" d="M241.903 158.158C241.903 158.158 245.638 161.179 245.622 164.789L241.903 158.158Z" fill="black"/>
<path d="M210.215 70.6085C219.863 70.6085 227.684 60.7706 227.684 48.635C227.684 36.4993 219.863 26.6614 210.215 26.6614C200.567 26.6614 192.746 36.4993 192.746 48.635C192.746 60.7706 200.567 70.6085 210.215 70.6085Z" fill="#BE6F72"/>
<path d="M199.245 42.737C201.365 42.3189 203.222 40.7694 205.248 39.879C209.781 37.8769 214.794 39.2494 219.381 41.0547C221.141 41.7482 222.928 42.5304 224.774 42.5304C226.62 42.5304 228.579 41.581 229.522 39.5789C230.39 37.7392 230.222 35.3485 229.49 33.4153C228.759 31.4821 227.535 29.9277 226.299 28.4618C222.232 23.6313 217.187 19.1156 211.607 19.6075C209.362 19.8091 207.215 20.8176 205.15 21.9342C202.55 23.3435 200.02 24.9467 197.571 26.7352C195.69 28.1076 192.206 29.9425 191.123 32.4512C188.659 38.1032 195.413 43.4945 199.245 42.737Z" fill="#3E373A"/>
<path opacity="0.1" d="M229.522 37.5129C228.579 39.515 226.62 40.4644 224.774 40.4644C222.928 40.4644 221.141 39.7117 219.377 39.0182C214.79 37.2129 209.781 35.8355 205.244 37.8425C203.222 38.7329 201.361 40.302 199.241 40.6956C196.152 41.3055 191.178 37.9212 190.638 33.617C190.032 38.5902 195.8 42.8501 199.241 42.1713C201.361 41.7532 203.222 40.2037 205.244 39.3182C209.781 37.3112 214.79 38.6886 219.377 40.4939C221.141 41.1875 222.924 41.9696 224.774 41.9401C226.624 41.9106 228.579 40.9956 229.522 38.9886C230.01 37.8968 230.202 36.6344 230.069 35.3928C230.008 36.1403 229.822 36.863 229.522 37.5129Z" fill="black"/>
<path d="M371.288 304.103C371.288 304.103 373.607 307.915 370.216 313.675C366.826 319.435 364.033 324.295 365.16 327.886C365.16 327.886 370.275 317.192 374.436 317.04C378.597 316.887 375.859 310.532 371.288 304.103Z" fill="#FFC458"/>
<path opacity="0.1" d="M371.288 304.103C371.49 304.471 371.649 304.873 371.761 305.298C375.82 311.299 377.987 316.902 374.08 317.04C370.443 317.173 366.083 325.353 365.039 327.414C365.072 327.581 365.112 327.745 365.16 327.906C365.16 327.906 370.275 317.212 374.436 317.059C378.597 316.907 375.859 310.532 371.288 304.103Z" fill="black"/>
<path d="M375.589 308.963C375.589 310.306 375.468 311.393 375.324 311.393C375.179 311.393 375.054 310.306 375.054 308.963C375.054 307.62 375.202 308.254 375.351 308.254C375.5 308.254 375.589 307.62 375.589 308.963Z" fill="#FFD037"/>
<path d="M377.072 310.566C376.137 311.206 375.32 311.594 375.249 311.432C375.179 311.27 375.879 310.615 376.814 309.956C377.748 309.297 377.381 309.779 377.451 309.956C377.521 310.133 378.01 309.922 377.072 310.566Z" fill="#FFD037"/>
<path d="M359.032 304.103C359.032 304.103 356.713 307.915 360.103 313.675C363.494 319.435 366.286 324.295 365.156 327.886C365.156 327.886 360.045 317.192 355.88 317.04C351.715 316.887 354.472 310.532 359.032 304.103Z" fill="#FFC458"/>
<path opacity="0.1" d="M359.032 304.103C358.83 304.471 358.67 304.873 358.558 305.298C354.499 311.299 352.333 316.902 356.239 317.04C359.872 317.173 364.237 325.353 365.281 327.414C365.248 327.581 365.206 327.746 365.156 327.906C365.156 327.906 360.045 317.212 355.88 317.059C351.715 316.907 354.472 310.532 359.032 304.103Z" fill="black"/>
<path d="M354.722 308.963C354.722 310.306 354.839 311.393 354.988 311.393C355.137 311.393 355.258 310.306 355.258 308.963C355.258 307.62 355.105 308.254 354.961 308.254C354.816 308.254 354.722 307.62 354.722 308.963Z" fill="#FFD037"/>
<path d="M353.244 310.566C354.179 311.206 354.996 311.594 355.066 311.432C355.137 311.27 354.437 310.615 353.502 309.956C352.567 309.297 352.935 309.779 352.865 309.956C352.794 310.133 352.305 309.922 353.244 310.566Z" fill="#FFD037"/>
<path opacity="0.1" d="M365.16 357.066C378.551 357.066 389.406 354.972 389.406 352.388C389.406 349.805 378.551 347.71 365.16 347.71C351.769 347.71 340.914 349.805 340.914 352.388C340.914 354.972 351.769 357.066 365.16 357.066Z" fill="#FFC458"/>
<path d="M377.639 322.746L377.521 323.936L377.357 325.619L377.291 326.322L377.126 328.004L377.056 328.708L376.896 330.385L375.038 349.52C374.874 351.227 372.657 352.56 369.978 352.56H360.338C357.659 352.56 355.446 351.227 355.277 349.52L353.42 330.385L353.256 328.708L353.189 328.004L353.025 326.322L352.955 325.619L352.794 323.936L352.677 322.746C352.587 321.762 353.784 320.965 355.301 320.965H375.019C376.532 320.965 377.733 321.777 377.639 322.746Z" fill="#65617D"/>
<path d="M377.521 323.936L377.361 325.619H352.958L352.794 323.936H377.521Z" fill="#9D9CB5"/>
<path d="M377.291 326.322L377.13 328.004H353.189L353.025 326.322H377.291Z" fill="#9D9CB5"/>
<path d="M377.06 328.708L376.896 330.39H353.42L353.26 328.708H377.06Z" fill="#9D9CB5"/>
</g>
<defs>
<linearGradient id="paint0_linear" x1="213.773" y1="246.899" x2="213.773" y2="0.000838612" gradientUnits="userSpaceOnUse">
<stop stop-color="#808080" stop-opacity="0.25"/>
<stop offset="0.54" stop-color="#808080" stop-opacity="0.12"/>
<stop offset="1" stop-color="#808080" stop-opacity="0.1"/>
</linearGradient>
<clipPath id="clip0">
<rect width="400" height="400" fill="white"/>
</clipPath>
</defs>
</svg>
