<svg width="238" height="70" viewBox="0 0 238 70" fill="none" xmlns="http://www.w3.org/2000/svg">
<g filter="url(#filter0_d)">
<rect x="3.25" y="10" width="50" height="50" rx="5" fill="#002460"/>
</g>
<path d="M38.15 31.89L37.1 27.52C36.88 26.62 36.1 26 35.19 26H21.3C20.4 26 19.61 26.63 19.4 27.52L18.35 31.89C18.11 32.91 18.33 33.95 18.97 34.77C19.05 34.88 19.16 34.96 19.25 35.06V42C19.25 43.1 20.15 44 21.25 44H35.25C36.35 44 37.25 43.1 37.25 42V35.06C37.34 34.97 37.45 34.88 37.53 34.78C38.17 33.96 38.4 32.91 38.15 31.89ZM35.16 27.99L36.21 32.36C36.31 32.78 36.22 33.2 35.96 33.53C35.82 33.71 35.52 34 35.02 34C34.41 34 33.88 33.51 33.81 32.86L33.23 28L35.16 27.99ZM29.25 28H31.21L31.75 32.52C31.8 32.91 31.68 33.3 31.42 33.59C31.2 33.85 30.88 34 30.47 34C29.8 34 29.25 33.41 29.25 32.69V28ZM24.74 32.52L25.29 28H27.25V32.69C27.25 33.41 26.7 34 25.96 34C25.62 34 25.31 33.85 25.07 33.59C24.82 33.3 24.7 32.91 24.74 32.52ZM20.29 32.36L21.3 28H23.27L22.69 32.86C22.61 33.51 22.09 34 21.48 34C20.99 34 20.68 33.71 20.55 33.53C20.28 33.21 20.19 32.78 20.29 32.36ZM21.25 42V35.97C21.33 35.98 21.4 36 21.48 36C22.35 36 23.14 35.64 23.72 35.05C24.32 35.65 25.12 36 26.03 36C26.9 36 27.68 35.64 28.26 35.07C28.85 35.64 29.65 36 30.55 36C31.39 36 32.19 35.65 32.79 35.05C33.37 35.64 34.16 36 35.03 36C35.11 36 35.18 35.98 35.26 35.97V42H21.25Z" fill="white"/>
<path d="M74.0352 39V13.4062H83C86.1055 13.4062 88.4609 14.0039 90.0664 15.1992C91.6719 16.3828 92.4746 18.123 92.4746 20.4199C92.4746 21.6738 92.1523 22.7812 91.5078 23.7422C90.8633 24.6914 89.9668 25.3887 88.8184 25.834C90.1309 26.1621 91.1621 26.8242 91.9121 27.8203C92.6738 28.8164 93.0547 30.0352 93.0547 31.4766C93.0547 33.9375 92.2695 35.8008 90.6992 37.0664C89.1289 38.332 86.8906 38.9766 83.9844 39H74.0352ZM79.3086 27.8555V34.7637H83.8262C85.0684 34.7637 86.0352 34.4707 86.7266 33.8848C87.4297 33.2871 87.7812 32.4668 87.7812 31.4238C87.7812 29.0801 86.5684 27.8906 84.1426 27.8555H79.3086ZM79.3086 24.1289H83.2109C85.8711 24.082 87.2012 23.0215 87.2012 20.9473C87.2012 19.7871 86.8613 18.9551 86.1816 18.4512C85.5137 17.9355 84.4531 17.6777 83 17.6777H79.3086V24.1289ZM95.9023 29.3145C95.9023 27.4277 96.2656 25.7461 96.9922 24.2695C97.7188 22.793 98.7617 21.6504 100.121 20.8418C101.492 20.0332 103.08 19.6289 104.885 19.6289C107.451 19.6289 109.543 20.4141 111.16 21.9844C112.789 23.5547 113.697 25.6875 113.885 28.3828L113.92 29.6836C113.92 32.6016 113.105 34.9453 111.477 36.7148C109.848 38.4727 107.662 39.3516 104.92 39.3516C102.178 39.3516 99.9863 38.4727 98.3457 36.7148C96.7168 34.957 95.9023 32.5664 95.9023 29.543V29.3145ZM100.982 29.6836C100.982 31.4883 101.322 32.8711 102.002 33.832C102.682 34.7812 103.654 35.2559 104.92 35.2559C106.15 35.2559 107.111 34.7871 107.803 33.8496C108.494 32.9004 108.84 31.3887 108.84 29.3145C108.84 27.5449 108.494 26.1738 107.803 25.2012C107.111 24.2285 106.139 23.7422 104.885 23.7422C103.643 23.7422 102.682 24.2285 102.002 25.2012C101.322 26.1621 100.982 27.6562 100.982 29.6836ZM116.258 29.3145C116.258 27.4277 116.621 25.7461 117.348 24.2695C118.074 22.793 119.117 21.6504 120.477 20.8418C121.848 20.0332 123.436 19.6289 125.24 19.6289C127.807 19.6289 129.898 20.4141 131.516 21.9844C133.145 23.5547 134.053 25.6875 134.24 28.3828L134.275 29.6836C134.275 32.6016 133.461 34.9453 131.832 36.7148C130.203 38.4727 128.018 39.3516 125.275 39.3516C122.533 39.3516 120.342 38.4727 118.701 36.7148C117.072 34.957 116.258 32.5664 116.258 29.543V29.3145ZM121.338 29.6836C121.338 31.4883 121.678 32.8711 122.357 33.832C123.037 34.7812 124.01 35.2559 125.275 35.2559C126.506 35.2559 127.467 34.7871 128.158 33.8496C128.85 32.9004 129.195 31.3887 129.195 29.3145C129.195 27.5449 128.85 26.1738 128.158 25.2012C127.467 24.2285 126.494 23.7422 125.24 23.7422C123.998 23.7422 123.037 24.2285 122.357 25.2012C121.678 26.1621 121.338 27.6562 121.338 29.6836ZM144.312 31.3711L142.484 33.1992V39H137.404V12H142.484V26.959L143.469 25.6934L148.338 19.9805H154.438L147.564 27.9082L155.035 39H149.199L144.312 31.3711ZM161.398 19.9805L161.557 22.1074C162.904 20.4551 164.727 19.6289 167.023 19.6289C169.473 19.6289 171.154 20.5957 172.068 22.5293C173.404 20.5957 175.309 19.6289 177.781 19.6289C179.844 19.6289 181.379 20.2324 182.387 21.4395C183.395 22.6348 183.898 24.4395 183.898 26.8535V39H178.801V26.8711C178.801 25.793 178.59 25.0078 178.168 24.5156C177.746 24.0117 177.002 23.7598 175.936 23.7598C174.412 23.7598 173.357 24.4863 172.771 25.9395L172.789 39H167.709V26.8887C167.709 25.7871 167.492 24.9902 167.059 24.498C166.625 24.0059 165.887 23.7598 164.844 23.7598C163.402 23.7598 162.359 24.3574 161.715 25.5527V39H156.635V19.9805H161.398ZM198.84 39C198.605 38.543 198.436 37.9746 198.33 37.2949C197.1 38.666 195.5 39.3516 193.531 39.3516C191.668 39.3516 190.121 38.8125 188.891 37.7344C187.672 36.6562 187.062 35.2969 187.062 33.6562C187.062 31.6406 187.807 30.0938 189.295 29.0156C190.795 27.9375 192.957 27.3926 195.781 27.3809H198.119V26.291C198.119 25.4121 197.891 24.709 197.434 24.1816C196.988 23.6543 196.279 23.3906 195.307 23.3906C194.451 23.3906 193.777 23.5957 193.285 24.0059C192.805 24.416 192.564 24.9785 192.564 25.6934H187.484C187.484 24.5918 187.824 23.5723 188.504 22.6348C189.184 21.6973 190.145 20.9648 191.387 20.4375C192.629 19.8984 194.023 19.6289 195.57 19.6289C197.914 19.6289 199.771 20.2207 201.143 21.4043C202.525 22.5762 203.217 24.2285 203.217 26.3613V34.6055C203.229 36.4102 203.48 37.7754 203.973 38.7012V39H198.84ZM194.639 35.4668C195.389 35.4668 196.08 35.3027 196.713 34.9746C197.346 34.6348 197.814 34.1836 198.119 33.6211V30.3516H196.221C193.678 30.3516 192.324 31.2305 192.16 32.9883L192.143 33.2871C192.143 33.9199 192.365 34.4414 192.811 34.8516C193.256 35.2617 193.865 35.4668 194.639 35.4668ZM217.807 24.7441C217.115 24.6504 216.506 24.6035 215.979 24.6035C214.057 24.6035 212.797 25.2539 212.199 26.5547V39H207.119V19.9805H211.918L212.059 22.248C213.078 20.502 214.49 19.6289 216.295 19.6289C216.857 19.6289 217.385 19.7051 217.877 19.8574L217.807 24.7441ZM227.229 15.3047V19.9805H230.48V23.707H227.229V33.1992C227.229 33.9023 227.363 34.4062 227.633 34.7109C227.902 35.0156 228.418 35.168 229.18 35.168C229.742 35.168 230.24 35.127 230.674 35.0449V38.8945C229.678 39.1992 228.652 39.3516 227.598 39.3516C224.035 39.3516 222.219 37.5527 222.148 33.9551V23.707H219.371V19.9805H222.148V15.3047H227.229Z" fill="#002460"/>
<path d="M79.543 53.4072C79.543 54.2536 79.3623 54.9144 79.001 55.3896C78.6396 55.8617 78.1351 56.0977 77.4873 56.0977C76.9144 56.0977 76.457 55.8779 76.1152 55.4385L76.0518 56H74.7822V48.5H76.1934V51.1904C76.5189 50.8096 76.9469 50.6191 77.4775 50.6191C78.1221 50.6191 78.6266 50.8568 78.9912 51.332C79.359 51.804 79.543 52.4697 79.543 53.3291V53.4072ZM78.1318 53.3047C78.1318 52.7708 78.0472 52.3818 77.8779 52.1377C77.7087 51.8903 77.4564 51.7666 77.1211 51.7666C76.6719 51.7666 76.3626 51.9505 76.1934 52.3184V54.4033C76.3659 54.7744 76.6784 54.96 77.1309 54.96C77.5866 54.96 77.8861 54.7354 78.0293 54.2861C78.0977 54.0713 78.1318 53.7441 78.1318 53.3047ZM83.5811 55.4629C83.2327 55.8861 82.751 56.0977 82.1357 56.0977C81.5693 56.0977 81.1364 55.9349 80.8369 55.6094C80.5407 55.2839 80.3893 54.807 80.3828 54.1787V50.7168H81.7939V54.1299C81.7939 54.68 82.0446 54.9551 82.5459 54.9551C83.0244 54.9551 83.3532 54.7891 83.5322 54.457V50.7168H84.9482V56H83.6201L83.5811 55.4629ZM87.9854 54.0029L88.9619 50.7168H90.4756L88.3516 56.8203L88.2344 57.0986C87.9186 57.7887 87.3978 58.1338 86.6719 58.1338C86.4668 58.1338 86.2585 58.1029 86.0469 58.041V56.9717L86.2617 56.9766C86.5286 56.9766 86.7272 56.9359 86.8574 56.8545C86.9909 56.7731 87.0951 56.638 87.1699 56.4492L87.3359 56.0146L85.4854 50.7168H87.0039L87.9854 54.0029ZM98.2832 53.4072C98.2832 54.2536 98.1025 54.9144 97.7412 55.3896C97.3799 55.8617 96.8753 56.0977 96.2275 56.0977C95.6546 56.0977 95.1973 55.8779 94.8555 55.4385L94.792 56H93.5225V48.5H94.9336V51.1904C95.2591 50.8096 95.6872 50.6191 96.2178 50.6191C96.8623 50.6191 97.3669 50.8568 97.7314 51.332C98.0993 51.804 98.2832 52.4697 98.2832 53.3291V53.4072ZM96.8721 53.3047C96.8721 52.7708 96.7874 52.3818 96.6182 52.1377C96.4489 51.8903 96.1966 51.7666 95.8613 51.7666C95.4121 51.7666 95.1029 51.9505 94.9336 52.3184V54.4033C95.1061 54.7744 95.4186 54.96 95.8711 54.96C96.3268 54.96 96.6263 54.7354 96.7695 54.2861C96.8379 54.0713 96.8721 53.7441 96.8721 53.3047ZM98.9375 53.3096C98.9375 52.7855 99.0384 52.3184 99.2402 51.9082C99.4421 51.498 99.7318 51.1807 100.109 50.9561C100.49 50.7314 100.931 50.6191 101.433 50.6191C102.146 50.6191 102.727 50.8372 103.176 51.2734C103.628 51.7096 103.881 52.3021 103.933 53.0508L103.942 53.4121C103.942 54.2227 103.716 54.8737 103.264 55.3652C102.811 55.8535 102.204 56.0977 101.442 56.0977C100.681 56.0977 100.072 55.8535 99.6162 55.3652C99.1637 54.877 98.9375 54.2129 98.9375 53.373V53.3096ZM100.349 53.4121C100.349 53.9134 100.443 54.2975 100.632 54.5645C100.821 54.8281 101.091 54.96 101.442 54.96C101.784 54.96 102.051 54.8298 102.243 54.5693C102.435 54.3057 102.531 53.8857 102.531 53.3096C102.531 52.818 102.435 52.4372 102.243 52.167C102.051 51.8968 101.781 51.7617 101.433 51.7617C101.088 51.7617 100.821 51.8968 100.632 52.167C100.443 52.4339 100.349 52.849 100.349 53.4121ZM104.592 53.3096C104.592 52.7855 104.693 52.3184 104.895 51.9082C105.096 51.498 105.386 51.1807 105.764 50.9561C106.145 50.7314 106.586 50.6191 107.087 50.6191C107.8 50.6191 108.381 50.8372 108.83 51.2734C109.283 51.7096 109.535 52.3021 109.587 53.0508L109.597 53.4121C109.597 54.2227 109.37 54.8737 108.918 55.3652C108.465 55.8535 107.858 56.0977 107.097 56.0977C106.335 56.0977 105.726 55.8535 105.271 55.3652C104.818 54.877 104.592 54.2129 104.592 53.373V53.3096ZM106.003 53.4121C106.003 53.9134 106.097 54.2975 106.286 54.5645C106.475 54.8281 106.745 54.96 107.097 54.96C107.438 54.96 107.705 54.8298 107.897 54.5693C108.09 54.3057 108.186 53.8857 108.186 53.3096C108.186 52.818 108.09 52.4372 107.897 52.167C107.705 51.8968 107.435 51.7617 107.087 51.7617C106.742 51.7617 106.475 51.8968 106.286 52.167C106.097 52.4339 106.003 52.849 106.003 53.4121ZM112.385 53.8809L111.877 54.3887V56H110.466V48.5H111.877V52.6553L112.15 52.3037L113.503 50.7168H115.197L113.288 52.9189L115.363 56H113.742L112.385 53.8809ZM118.669 54.54C118.669 54.3675 118.583 54.2324 118.41 54.1348C118.241 54.0339 117.967 53.9443 117.59 53.8662C116.333 53.6025 115.705 53.0687 115.705 52.2646C115.705 51.7959 115.899 51.4053 116.286 51.0928C116.677 50.777 117.186 50.6191 117.814 50.6191C118.485 50.6191 119.021 50.777 119.421 51.0928C119.825 51.4085 120.026 51.8187 120.026 52.3232H118.615C118.615 52.1214 118.55 51.9554 118.42 51.8252C118.29 51.6917 118.086 51.625 117.81 51.625C117.572 51.625 117.388 51.6787 117.258 51.7861C117.128 51.8936 117.062 52.0303 117.062 52.1963C117.062 52.3525 117.136 52.4795 117.282 52.5771C117.432 52.6715 117.683 52.7546 118.034 52.8262C118.386 52.8945 118.682 52.9727 118.923 53.0605C119.668 53.334 120.041 53.8076 120.041 54.4814C120.041 54.9632 119.834 55.3538 119.421 55.6533C119.007 55.9495 118.474 56.0977 117.819 56.0977C117.377 56.0977 116.983 56.0195 116.638 55.8633C116.296 55.7038 116.027 55.4873 115.832 55.2139C115.637 54.9372 115.539 54.6393 115.539 54.3203H116.877C116.89 54.571 116.983 54.763 117.155 54.8965C117.328 55.0299 117.559 55.0967 117.849 55.0967C118.119 55.0967 118.322 55.0462 118.459 54.9453C118.599 54.8411 118.669 54.7061 118.669 54.54ZM126.506 56C126.441 55.873 126.394 55.7152 126.364 55.5264C126.022 55.9072 125.578 56.0977 125.031 56.0977C124.514 56.0977 124.084 55.9479 123.742 55.6484C123.404 55.349 123.234 54.9714 123.234 54.5156C123.234 53.9557 123.441 53.526 123.854 53.2266C124.271 52.9271 124.872 52.7757 125.656 52.7725H126.306V52.4697C126.306 52.2256 126.242 52.0303 126.115 51.8838C125.992 51.7373 125.795 51.6641 125.524 51.6641C125.287 51.6641 125.1 51.721 124.963 51.835C124.829 51.9489 124.763 52.1051 124.763 52.3037H123.352C123.352 51.9977 123.446 51.7145 123.635 51.4541C123.824 51.1937 124.09 50.9902 124.436 50.8438C124.781 50.694 125.168 50.6191 125.598 50.6191C126.249 50.6191 126.765 50.7835 127.146 51.1123C127.53 51.4378 127.722 51.8968 127.722 52.4893V54.7793C127.725 55.2806 127.795 55.6598 127.932 55.917V56H126.506ZM125.339 55.0186C125.547 55.0186 125.739 54.973 125.915 54.8818C126.091 54.7874 126.221 54.6621 126.306 54.5059V53.5977H125.778C125.072 53.5977 124.696 53.8418 124.65 54.3301L124.646 54.4131C124.646 54.5889 124.707 54.7337 124.831 54.8477C124.955 54.9616 125.124 55.0186 125.339 55.0186ZM130.104 50.7168L130.148 51.3271C130.526 50.8551 131.032 50.6191 131.667 50.6191C132.227 50.6191 132.644 50.7835 132.917 51.1123C133.19 51.4411 133.33 51.9326 133.337 52.5869V56H131.926V52.6211C131.926 52.3216 131.861 52.1051 131.73 51.9717C131.6 51.835 131.384 51.7666 131.081 51.7666C130.684 51.7666 130.386 51.9359 130.188 52.2744V56H128.776V50.7168H130.104ZM136.384 54.0029L137.36 50.7168H138.874L136.75 56.8203L136.633 57.0986C136.317 57.7887 135.796 58.1338 135.07 58.1338C134.865 58.1338 134.657 58.1029 134.445 58.041V56.9717L134.66 56.9766C134.927 56.9766 135.126 56.9359 135.256 56.8545C135.389 56.7731 135.493 56.638 135.568 56.4492L135.734 56.0146L133.884 50.7168H135.402L136.384 54.0029ZM144.025 54.0811L144.719 50.7168H146.081L144.733 56H143.552L142.551 52.6748L141.55 56H140.373L139.025 50.7168H140.388L141.076 54.0762L142.043 50.7168H143.063L144.025 54.0811ZM148.161 51.293C148.535 50.8438 149.006 50.6191 149.572 50.6191C150.718 50.6191 151.299 51.2848 151.315 52.6162V56H149.904V52.6553C149.904 52.3525 149.839 52.1296 149.709 51.9863C149.579 51.8398 149.362 51.7666 149.06 51.7666C148.646 51.7666 148.347 51.9261 148.161 52.2451V56H146.75V48.5H148.161V51.293ZM154.812 56.0977C154.037 56.0977 153.405 55.86 152.917 55.3848C152.432 54.9095 152.189 54.2764 152.189 53.4854V53.3486C152.189 52.818 152.292 52.3444 152.497 51.9277C152.702 51.5078 152.992 51.1855 153.366 50.9609C153.744 50.7331 154.174 50.6191 154.655 50.6191C155.378 50.6191 155.946 50.847 156.359 51.3027C156.776 51.7585 156.984 52.4046 156.984 53.2412V53.8174H153.62C153.666 54.1624 153.802 54.4391 154.03 54.6475C154.261 54.8558 154.553 54.96 154.904 54.96C155.448 54.96 155.873 54.763 156.179 54.3691L156.872 55.1455C156.66 55.445 156.374 55.6794 156.013 55.8486C155.651 56.0146 155.251 56.0977 154.812 56.0977ZM154.65 51.7617C154.37 51.7617 154.143 51.8561 153.967 52.0449C153.794 52.2337 153.684 52.5039 153.635 52.8555H155.598V52.7432C155.591 52.4307 155.507 52.1898 155.344 52.0205C155.181 51.848 154.95 51.7617 154.65 51.7617ZM160.759 52.04C160.567 52.014 160.397 52.001 160.251 52.001C159.717 52.001 159.367 52.1816 159.201 52.543V56H157.79V50.7168H159.123L159.162 51.3467C159.445 50.8617 159.838 50.6191 160.339 50.6191C160.495 50.6191 160.642 50.6403 160.778 50.6826L160.759 52.04ZM163.776 56.0977C163.002 56.0977 162.37 55.86 161.882 55.3848C161.397 54.9095 161.154 54.2764 161.154 53.4854V53.3486C161.154 52.818 161.257 52.3444 161.462 51.9277C161.667 51.5078 161.957 51.1855 162.331 50.9609C162.709 50.7331 163.138 50.6191 163.62 50.6191C164.343 50.6191 164.911 50.847 165.324 51.3027C165.741 51.7585 165.949 52.4046 165.949 53.2412V53.8174H162.585C162.631 54.1624 162.767 54.4391 162.995 54.6475C163.226 54.8558 163.518 54.96 163.869 54.96C164.413 54.96 164.838 54.763 165.144 54.3691L165.837 55.1455C165.625 55.445 165.339 55.6794 164.978 55.8486C164.616 56.0146 164.216 56.0977 163.776 56.0977ZM163.615 51.7617C163.335 51.7617 163.107 51.8561 162.932 52.0449C162.759 52.2337 162.648 52.5039 162.6 52.8555H164.562V52.7432C164.556 52.4307 164.471 52.1898 164.309 52.0205C164.146 51.848 163.915 51.7617 163.615 51.7617ZM167.121 57.7822L166.384 57.3965L166.56 57.0791C166.778 56.682 166.89 56.2865 166.896 55.8926V54.7988H168.088L168.083 55.7754C168.08 56.1367 167.989 56.5013 167.81 56.8691C167.631 57.237 167.401 57.5413 167.121 57.7822ZM174.748 56C174.683 55.873 174.636 55.7152 174.606 55.5264C174.265 55.9072 173.82 56.0977 173.273 56.0977C172.756 56.0977 172.326 55.9479 171.984 55.6484C171.646 55.349 171.477 54.9714 171.477 54.5156C171.477 53.9557 171.683 53.526 172.097 53.2266C172.513 52.9271 173.114 52.7757 173.898 52.7725H174.548V52.4697C174.548 52.2256 174.484 52.0303 174.357 51.8838C174.234 51.7373 174.037 51.6641 173.767 51.6641C173.529 51.6641 173.342 51.721 173.205 51.835C173.072 51.9489 173.005 52.1051 173.005 52.3037H171.594C171.594 51.9977 171.688 51.7145 171.877 51.4541C172.066 51.1937 172.333 50.9902 172.678 50.8438C173.023 50.694 173.41 50.6191 173.84 50.6191C174.491 50.6191 175.007 50.7835 175.388 51.1123C175.772 51.4378 175.964 51.8968 175.964 52.4893V54.7793C175.967 55.2806 176.037 55.6598 176.174 55.917V56H174.748ZM173.581 55.0186C173.789 55.0186 173.981 54.973 174.157 54.8818C174.333 54.7874 174.463 54.6621 174.548 54.5059V53.5977H174.021C173.314 53.5977 172.938 53.8418 172.893 54.3301L172.888 54.4131C172.888 54.5889 172.95 54.7337 173.073 54.8477C173.197 54.9616 173.366 55.0186 173.581 55.0186ZM178.347 50.7168L178.391 51.3271C178.768 50.8551 179.274 50.6191 179.909 50.6191C180.469 50.6191 180.886 50.7835 181.159 51.1123C181.433 51.4411 181.573 51.9326 181.579 52.5869V56H180.168V52.6211C180.168 52.3216 180.103 52.1051 179.973 51.9717C179.842 51.835 179.626 51.7666 179.323 51.7666C178.926 51.7666 178.628 51.9359 178.43 52.2744V56H177.019V50.7168H178.347ZM184.626 54.0029L185.603 50.7168H187.116L184.992 56.8203L184.875 57.0986C184.559 57.7887 184.038 58.1338 183.312 58.1338C183.107 58.1338 182.899 58.1029 182.688 58.041V56.9717L182.902 56.9766C183.169 56.9766 183.368 56.9359 183.498 56.8545C183.632 56.7731 183.736 56.638 183.811 56.4492L183.977 56.0146L182.126 50.7168H183.645L184.626 54.0029ZM189.362 49.418V50.7168H190.266V51.752H189.362V54.3887C189.362 54.584 189.4 54.724 189.475 54.8086C189.549 54.8932 189.693 54.9355 189.904 54.9355C190.061 54.9355 190.199 54.9242 190.319 54.9014V55.9707C190.043 56.0553 189.758 56.0977 189.465 56.0977C188.475 56.0977 187.971 55.598 187.951 54.5986V51.752H187.18V50.7168H187.951V49.418H189.362ZM192.541 56H191.125V50.7168H192.541V56ZM191.042 49.3496C191.042 49.138 191.112 48.9639 191.252 48.8271C191.395 48.6904 191.589 48.6221 191.833 48.6221C192.074 48.6221 192.266 48.6904 192.409 48.8271C192.552 48.9639 192.624 49.138 192.624 49.3496C192.624 49.5645 192.551 49.7402 192.404 49.877C192.261 50.0137 192.071 50.082 191.833 50.082C191.595 50.082 191.403 50.0137 191.257 49.877C191.114 49.7402 191.042 49.5645 191.042 49.3496ZM195.031 50.7168L195.075 51.3076C195.45 50.8486 195.956 50.6191 196.594 50.6191C197.274 50.6191 197.741 50.8877 197.995 51.4248C198.366 50.8877 198.895 50.6191 199.582 50.6191C200.155 50.6191 200.581 50.7868 200.861 51.1221C201.141 51.4541 201.281 51.9554 201.281 52.626V56H199.865V52.6309C199.865 52.3314 199.807 52.1133 199.689 51.9766C199.572 51.8366 199.366 51.7666 199.069 51.7666C198.646 51.7666 198.353 51.9684 198.19 52.3721L198.195 56H196.784V52.6357C196.784 52.3298 196.724 52.1084 196.604 51.9717C196.483 51.835 196.278 51.7666 195.988 51.7666C195.588 51.7666 195.298 51.9326 195.119 52.2646V56H193.708V50.7168H195.031ZM204.802 56.0977C204.027 56.0977 203.396 55.86 202.907 55.3848C202.422 54.9095 202.18 54.2764 202.18 53.4854V53.3486C202.18 52.818 202.282 52.3444 202.487 51.9277C202.692 51.5078 202.982 51.1855 203.356 50.9609C203.734 50.7331 204.164 50.6191 204.646 50.6191C205.368 50.6191 205.936 50.847 206.35 51.3027C206.766 51.7585 206.975 52.4046 206.975 53.2412V53.8174H203.61C203.656 54.1624 203.793 54.4391 204.021 54.6475C204.252 54.8558 204.543 54.96 204.895 54.96C205.438 54.96 205.863 54.763 206.169 54.3691L206.862 55.1455C206.651 55.445 206.364 55.6794 206.003 55.8486C205.642 56.0146 205.241 56.0977 204.802 56.0977ZM204.641 51.7617C204.361 51.7617 204.133 51.8561 203.957 52.0449C203.785 52.2337 203.674 52.5039 203.625 52.8555H205.588V52.7432C205.581 52.4307 205.497 52.1898 205.334 52.0205C205.171 51.848 204.94 51.7617 204.641 51.7617Z" fill="#FFC458"/>
<defs>
<filter id="filter0_d" x="0.25" y="7" width="56" height="56" filterUnits="userSpaceOnUse" color-interpolation-filters="sRGB">
<feFlood flood-opacity="0" result="BackgroundImageFix"/>
<feColorMatrix in="SourceAlpha" type="matrix" values="0 0 0 0 0 0 0 0 0 0 0 0 0 0 0 0 0 0 127 0"/>
<feOffset/>
<feGaussianBlur stdDeviation="1.5"/>
<feColorMatrix type="matrix" values="0 0 0 0 0 0 0 0 0 0 0 0 0 0 0 0 0 0 0.25 0"/>
<feBlend mode="normal" in2="BackgroundImageFix" result="effect1_dropShadow"/>
<feBlend mode="normal" in="SourceGraphic" in2="effect1_dropShadow" result="shape"/>
</filter>
</defs>
</svg>
