<svg width="22" height="22" viewBox="0 0 22 22" fill="none" xmlns="http://www.w3.org/2000/svg">
<path d="M10.7857 8.89099H12.8724V5.88623H16.0023V3.88306H12.8724V0.878296H10.7857V3.88306H7.65578V5.88623H10.7857V8.89099ZM6.61246 17.9053C5.46481 17.9053 4.53625 18.8067 4.53625 19.9085C4.53625 21.0102 5.46481 21.9116 6.61246 21.9116C7.76011 21.9116 8.6991 21.0102 8.6991 19.9085C8.6991 18.8067 7.76011 17.9053 6.61246 17.9053ZM17.0457 17.9053C15.898 17.9053 14.9695 18.8067 14.9695 19.9085C14.9695 21.0102 15.898 21.9116 17.0457 21.9116C18.1933 21.9116 19.1323 21.0102 19.1323 19.9085C19.1323 18.8067 18.1933 17.9053 17.0457 17.9053ZM6.78982 14.6501L6.82112 14.5299L7.76011 12.8973H15.5328C16.3153 12.8973 17.0039 12.4867 17.3587 11.8657L21.3859 4.84458L19.5705 3.88306H19.5601L18.4124 5.88623L15.5328 10.8942H8.20874L8.07311 10.6237L5.73607 5.88623L4.74492 3.88306L3.7642 1.87988H0.352539V3.88306H2.43918L6.19513 11.4851L4.78665 13.939C4.61972 14.2194 4.52582 14.55 4.52582 14.9005C4.52582 16.0023 5.46481 16.9037 6.61246 16.9037H19.1323V14.9005H7.05065C6.91502 14.9005 6.78982 14.7903 6.78982 14.6501Z" fill="white"/>
</svg>
