<svg width="32" height="42" viewBox="0 0 32 42" fill="none" xmlns="http://www.w3.org/2000/svg">
<path d="M25.375 41.8334H6.625C4.9674 41.8334 3.37769 41.1749 2.20558 40.0028C1.03348 38.8307 0.375 37.241 0.375 35.5834V6.41669C0.375 4.75908 1.03348 3.16937 2.20558 1.99727C3.37769 0.825168 4.9674 0.166687 6.625 0.166687H20.3542C20.9007 0.168988 21.4245 0.38597 21.8125 0.770854L31.0208 9.97919C31.4057 10.3672 31.6227 10.891 31.625 11.4375V35.5834C31.625 37.241 30.9665 38.8307 29.7944 40.0028C28.6223 41.1749 27.0326 41.8334 25.375 41.8334Z" fill="#FFC458"/>
<path d="M11.6375 24.6457C11.5747 25.5139 11.2533 26.1973 10.6733 26.6961C10.0969 27.1948 9.33589 27.4442 8.39012 27.4442C7.35569 27.4442 6.54107 27.0969 5.94627 26.4024C5.35517 25.7041 5.05962 24.7473 5.05962 23.5318V23.0386C5.05962 22.2628 5.19631 21.5793 5.4697 20.9882C5.74308 20.3971 6.13284 19.9446 6.63897 19.6305C7.1488 19.3128 7.73991 19.154 8.41229 19.154C9.34328 19.154 10.0932 19.4033 10.6622 19.9021C11.2311 20.4008 11.5599 21.1009 11.6486 22.0024H9.9861C9.94547 21.4814 9.79954 21.1046 9.54832 20.8719C9.30079 20.6354 8.92212 20.5172 8.41229 20.5172C7.85813 20.5172 7.44251 20.7167 7.16543 21.1157C6.89204 21.511 6.75165 22.1261 6.74427 22.961V23.5706C6.74427 24.4425 6.87542 25.0798 7.13772 25.4825C7.40372 25.8852 7.82118 26.0865 8.39012 26.0865C8.90364 26.0865 9.28601 25.9701 9.53723 25.7374C9.79215 25.501 9.93808 25.1371 9.97502 24.6457H11.6375ZM16.9131 25.2165C16.9131 24.9025 16.8023 24.6623 16.5806 24.4961C16.3589 24.3261 15.96 24.1488 15.3836 23.9641C14.8073 23.7757 14.351 23.5909 14.0148 23.4099C13.0986 22.9149 12.6405 22.248 12.6405 21.4094C12.6405 20.9735 12.7624 20.5855 13.0063 20.2457C13.2538 19.9021 13.6066 19.6342 14.0647 19.4421C14.5265 19.25 15.0437 19.154 15.6164 19.154C16.1927 19.154 16.7062 19.2593 17.1569 19.4698C17.6077 19.6767 17.9568 19.9704 18.2043 20.351C18.4555 20.7315 18.5811 21.1637 18.5811 21.6477H16.9187C16.9187 21.2782 16.8023 20.9919 16.5695 20.7887C16.3368 20.5819 16.0098 20.4784 15.5887 20.4784C15.1823 20.4784 14.8664 20.5652 14.6411 20.7389C14.4157 20.9088 14.303 21.1342 14.303 21.4149C14.303 21.6772 14.4342 21.8971 14.6965 22.0744C14.9625 22.2517 15.3522 22.418 15.8657 22.5731C16.8115 22.8576 17.5005 23.2104 17.9328 23.6316C18.365 24.0527 18.5811 24.5773 18.5811 25.2054C18.5811 25.9036 18.317 26.4523 17.7887 26.8513C17.2604 27.2466 16.5492 27.4442 15.6552 27.4442C15.0345 27.4442 14.4693 27.3315 13.9594 27.1062C13.4496 26.8771 13.0598 26.5649 12.7902 26.1696C12.5242 25.7743 12.3912 25.3162 12.3912 24.7953H14.0592C14.0592 25.6857 14.5912 26.1308 15.6552 26.1308C16.0505 26.1308 16.3589 26.0514 16.5806 25.8926C16.8023 25.73 16.9131 25.5046 16.9131 25.2165ZM22.693 25.3329L24.5217 19.2648H26.3726L23.563 27.3334H21.8285L19.03 19.2648H20.8754L22.693 25.3329Z" fill="white"/>
</svg>
