<svg width="36" height="36" viewBox="0 0 36 36" fill="none" xmlns="http://www.w3.org/2000/svg">
<path d="M36 18C36 8.05891 27.9411 3.8147e-05 18 3.8147e-05C8.05887 3.8147e-05 0 8.05891 0 18C0 26.9844 6.58234 34.431 15.1875 35.7814V23.2032H10.6172V18H15.1875V14.0344C15.1875 9.52316 17.8748 7.03129 21.9864 7.03129C23.9557 7.03129 26.0156 7.38285 26.0156 7.38285V11.8125H23.7459C21.5098 11.8125 20.8125 13.2001 20.8125 14.6235V18H25.8047L25.0066 23.2032H20.8125V35.7814C29.4177 34.431 36 26.9844 36 18Z" fill="#1877F2"/>
<path d="M25.0066 23.2031L25.8047 18H20.8125V14.6235C20.8125 13.2 21.5098 11.8125 23.7459 11.8125H26.0156V7.38281C26.0156 7.38281 23.9557 7.03125 21.9864 7.03125C17.8748 7.03125 15.1875 9.52313 15.1875 14.0344V18H10.6172V23.2031H15.1875V35.7813C16.1039 35.9251 17.0432 36 18 36C18.9568 36 19.8961 35.9251 20.8125 35.7813V23.2031H25.0066Z" fill="white"/>
</svg>
