<svg width="40" height="40" viewBox="0 0 40 40" fill="none" xmlns="http://www.w3.org/2000/svg">
<rect width="40" height="40" rx="5" fill="#002460"/>
<path d="M23.8645 22.3208H23.0515L22.7633 22.0429C23.7719 20.8696 24.3791 19.3465 24.3791 17.6895C24.3791 13.9949 21.3842 11 17.6895 11C13.9949 11 11 13.9949 11 17.6895C11 21.3842 13.9949 24.3791 17.6895 24.3791C19.3465 24.3791 20.8696 23.7719 22.0429 22.7633L22.3208 23.0515V23.8645L27.4666 29L29 27.4666L23.8645 22.3208V22.3208ZM17.6895 22.3208C15.1269 22.3208 13.0583 20.2521 13.0583 17.6895C13.0583 15.1269 15.1269 13.0583 17.6895 13.0583C20.2521 13.0583 22.3208 15.1269 22.3208 17.6895C22.3208 20.2521 20.2521 22.3208 17.6895 22.3208Z" fill="white"/>
</svg>
