<svg width="36" height="36" viewBox="0 0 36 36" fill="none" xmlns="http://www.w3.org/2000/svg">
<g clip-path="url(#clip0)">
<path d="M24.75 0H11.25C8.26631 0 5.40483 1.18526 3.29505 3.29505C1.18526 5.40483 0 8.26631 0 11.25L0 24.75C0 27.7337 1.18526 30.5952 3.29505 32.705C5.40483 34.8147 8.26631 36 11.25 36H24.75C27.7337 36 30.5952 34.8147 32.705 32.705C34.8147 30.5952 36 27.7337 36 24.75V11.25C36 8.26631 34.8147 5.40483 32.705 3.29505C30.5952 1.18526 27.7337 0 24.75 0V0ZM32.625 24.75C32.625 29.0925 29.0925 32.625 24.75 32.625H11.25C6.9075 32.625 3.375 29.0925 3.375 24.75V11.25C3.375 6.9075 6.9075 3.375 11.25 3.375H24.75C29.0925 3.375 32.625 6.9075 32.625 11.25V24.75Z" fill="url(#paint0_linear)"/>
<path d="M18 9C15.6131 9 13.3239 9.94821 11.636 11.636C9.94821 13.3239 9 15.6131 9 18C9 20.3869 9.94821 22.6761 11.636 24.364C13.3239 26.0518 15.6131 27 18 27C20.3869 27 22.6761 26.0518 24.364 24.364C26.0518 22.6761 27 20.3869 27 18C27 15.6131 26.0518 13.3239 24.364 11.636C22.6761 9.94821 20.3869 9 18 9ZM18 23.625C16.5087 23.6232 15.079 23.03 14.0245 21.9755C12.97 20.921 12.3768 19.4913 12.375 18C12.375 14.8973 14.8995 12.375 18 12.375C21.1005 12.375 23.625 14.8973 23.625 18C23.625 21.1005 21.1005 23.625 18 23.625Z" fill="url(#paint1_linear)"/>
<path d="M27.675 9.52423C28.3373 9.52423 28.8743 8.98731 28.8743 8.32498C28.8743 7.66266 28.3373 7.12573 27.675 7.12573C27.0127 7.12573 26.4758 7.66266 26.4758 8.32498C26.4758 8.98731 27.0127 9.52423 27.675 9.52423Z" fill="url(#paint2_linear)"/>
</g>
<defs>
<linearGradient id="paint0_linear" x1="3.294" y1="32.706" x2="32.706" y2="3.294" gradientUnits="userSpaceOnUse">
<stop stop-color="#FFC107"/>
<stop offset="0.507" stop-color="#F44336"/>
<stop offset="0.99" stop-color="#9C27B0"/>
</linearGradient>
<linearGradient id="paint1_linear" x1="11.637" y1="24.363" x2="24.363" y2="11.637" gradientUnits="userSpaceOnUse">
<stop stop-color="#FFC107"/>
<stop offset="0.507" stop-color="#F44336"/>
<stop offset="0.99" stop-color="#9C27B0"/>
</linearGradient>
<linearGradient id="paint2_linear" x1="26.8268" y1="9.17323" x2="28.5233" y2="7.47673" gradientUnits="userSpaceOnUse">
<stop stop-color="#FFC107"/>
<stop offset="0.507" stop-color="#F44336"/>
<stop offset="0.99" stop-color="#9C27B0"/>
</linearGradient>
<clipPath id="clip0">
<rect width="36" height="36" fill="white"/>
</clipPath>
</defs>
</svg>
