<svg width="28" height="24" viewBox="0 0 28 24" fill="none" xmlns="http://www.w3.org/2000/svg">
<path d="M27.2 7.85333L25.8 2.02667C25.5067 0.826667 24.4667 0 23.2533 0H4.73334C3.53334 0 2.48001 0.84 2.20001 2.02667L0.800009 7.85333C0.480009 9.21333 0.773342 10.6 1.62668 11.6933C1.73334 11.84 1.88001 11.9467 2.00001 12.08V21.3333C2.00001 22.8 3.20001 24 4.66668 24H23.3333C24.8 24 26 22.8 26 21.3333V12.08C26.12 11.96 26.2667 11.84 26.3733 11.7067C27.2267 10.6133 27.5333 9.21333 27.2 7.85333ZM23.2133 2.65333L24.6133 8.48C24.7467 9.04 24.6267 9.6 24.28 10.04C24.0933 10.28 23.6933 10.6667 23.0267 10.6667C22.2133 10.6667 21.5067 10.0133 21.4133 9.14667L20.64 2.66667L23.2133 2.65333ZM15.3333 2.66667H17.9467L18.6667 8.69333C18.7333 9.21333 18.5733 9.73333 18.2267 10.12C17.9333 10.4667 17.5067 10.6667 16.96 10.6667C16.0667 10.6667 15.3333 9.88 15.3333 8.92V2.66667ZM9.32001 8.69333L10.0533 2.66667H12.6667V8.92C12.6667 9.88 11.9333 10.6667 10.9467 10.6667C10.4933 10.6667 10.08 10.4667 9.76001 10.12C9.42668 9.73333 9.26668 9.21333 9.32001 8.69333ZM3.38668 8.48L4.73334 2.66667H7.36001L6.58668 9.14667C6.48001 10.0133 5.78668 10.6667 4.97334 10.6667C4.32001 10.6667 3.90668 10.28 3.73334 10.04C3.37334 9.61333 3.25334 9.04 3.38668 8.48ZM4.66668 21.3333V13.2933C4.77334 13.3067 4.86668 13.3333 4.97334 13.3333C6.13334 13.3333 7.18668 12.8533 7.96001 12.0667C8.76001 12.8667 9.82668 13.3333 11.04 13.3333C12.2 13.3333 13.24 12.8533 14.0133 12.0933C14.8 12.8533 15.8667 13.3333 17.0667 13.3333C18.1867 13.3333 19.2533 12.8667 20.0533 12.0667C20.8267 12.8533 21.88 13.3333 23.04 13.3333C23.1467 13.3333 23.24 13.3067 23.3467 13.2933V21.3333H4.66668Z" fill="white"/>
</svg>
