<svg width="57" height="56" viewBox="0 0 57 56" fill="none" xmlns="http://www.w3.org/2000/svg">
<g filter="url(#filter0_d)">
<rect x="3.5" y="3" width="50" height="50" rx="5" fill="#002460"/>
</g>
<path d="M38.4 24.89L37.35 20.52C37.13 19.62 36.35 19 35.44 19H21.55C20.65 19 19.86 19.63 19.65 20.52L18.6 24.89C18.36 25.91 18.58 26.95 19.22 27.77C19.3 27.88 19.41 27.96 19.5 28.06V35C19.5 36.1 20.4 37 21.5 37H35.5C36.6 37 37.5 36.1 37.5 35V28.06C37.59 27.97 37.7 27.88 37.78 27.78C38.42 26.96 38.65 25.91 38.4 24.89ZM35.41 20.99L36.46 25.36C36.56 25.78 36.47 26.2 36.21 26.53C36.07 26.71 35.77 27 35.27 27C34.66 27 34.13 26.51 34.06 25.86L33.48 21L35.41 20.99ZM29.5 21H31.46L32 25.52C32.05 25.91 31.93 26.3 31.67 26.59C31.45 26.85 31.13 27 30.72 27C30.05 27 29.5 26.41 29.5 25.69V21ZM24.99 25.52L25.54 21H27.5V25.69C27.5 26.41 26.95 27 26.21 27C25.87 27 25.56 26.85 25.32 26.59C25.07 26.3 24.95 25.91 24.99 25.52ZM20.54 25.36L21.55 21H23.52L22.94 25.86C22.86 26.51 22.34 27 21.73 27C21.24 27 20.93 26.71 20.8 26.53C20.53 26.21 20.44 25.78 20.54 25.36ZM21.5 35V28.97C21.58 28.98 21.65 29 21.73 29C22.6 29 23.39 28.64 23.97 28.05C24.57 28.65 25.37 29 26.28 29C27.15 29 27.93 28.64 28.51 28.07C29.1 28.64 29.9 29 30.8 29C31.64 29 32.44 28.65 33.04 28.05C33.62 28.64 34.41 29 35.28 29C35.36 29 35.43 28.98 35.51 28.97V35H21.5Z" fill="white"/>
<defs>
<filter id="filter0_d" x="0.5" y="0" width="56" height="56" filterUnits="userSpaceOnUse" color-interpolation-filters="sRGB">
<feFlood flood-opacity="0" result="BackgroundImageFix"/>
<feColorMatrix in="SourceAlpha" type="matrix" values="0 0 0 0 0 0 0 0 0 0 0 0 0 0 0 0 0 0 127 0"/>
<feOffset/>
<feGaussianBlur stdDeviation="1.5"/>
<feColorMatrix type="matrix" values="0 0 0 0 0 0 0 0 0 0 0 0 0 0 0 0 0 0 0.25 0"/>
<feBlend mode="normal" in2="BackgroundImageFix" result="effect1_dropShadow"/>
<feBlend mode="normal" in="SourceGraphic" in2="effect1_dropShadow" result="shape"/>
</filter>
</defs>
</svg>
