<svg width="70" height="40" viewBox="0 0 70 40" fill="none" xmlns="http://www.w3.org/2000/svg">
<path fill-rule="evenodd" clip-rule="evenodd" d="M25.5355 35.7234H44.4642V4.27612H25.5355V35.7234Z" fill="#FF5F00"/>
<path fill-rule="evenodd" clip-rule="evenodd" d="M26.7374 20.0002C26.7374 13.6203 29.9685 7.93815 34.9999 4.27654C31.32 1.59824 26.6774 0.000488281 21.6309 0.000488281C9.68425 0.000488281 0 8.9548 0 20.0002C0 31.0456 9.68425 39.9999 21.6309 39.9999C26.6774 39.9999 31.32 38.4021 34.9999 35.7238C29.9685 32.0617 26.7374 26.3801 26.7374 20.0002Z" fill="#EB001B"/>
<path fill-rule="evenodd" clip-rule="evenodd" d="M69.3245 32.3928V31.6167H69.1052L68.8534 32.1506L68.601 31.6167H68.3817V32.3928H68.5361V31.8073L68.7729 32.3123H68.9333L69.1701 31.8062V32.3928H69.3245ZM67.9358 32.3928V31.749H68.2171V31.6179H67.502V31.749H67.7826V32.3928H67.9358ZM69.9999 19.9997C69.9999 31.0451 60.3151 39.9994 48.369 39.9994C43.3226 39.9994 38.6794 38.4016 35 35.7234C40.0314 32.0617 43.2625 26.3796 43.2625 19.9997C43.2625 13.6204 40.0314 7.93821 35 4.27605C38.6794 1.59775 43.3226 0 48.369 0C60.3151 0 69.9999 8.95431 69.9999 19.9997Z" fill="#F79E1B"/>
</svg>
