<svg width="100" height="52" viewBox="0 0 100 52" fill="none" xmlns="http://www.w3.org/2000/svg">
<path fill-rule="evenodd" clip-rule="evenodd" d="M93.3321 0H6.66787C2.9853 0 0 2.45568 0 5.47888V46.5211C0 49.547 2.9928 52 6.66787 52H93.3321C97.0147 52 100 49.5443 100 46.5211V5.47888C100 2.45298 97.0072 0 93.3321 0Z" fill="#F4F4F4"/>
<path opacity="0.938" fill-rule="evenodd" clip-rule="evenodd" d="M16.0324 30.0288C15.965 29.9924 16.428 28.528 17.5319 25.2857C18.4103 22.7059 19.2364 20.2927 19.3676 19.923L19.6063 19.2509L23.0576 19.3026C27.0921 19.3631 27.7132 19.4068 28.3622 19.6765C29.5128 20.1544 29.8296 20.8899 29.4331 22.1628C29.0954 23.2469 28.4502 23.9847 27.2027 24.7134C26.9661 24.8516 26.7594 25.0206 26.7434 25.0889C26.7256 25.1647 26.8731 25.3317 27.1219 25.5176C27.3461 25.6852 27.5844 25.9094 27.6515 26.0159C27.832 26.3024 27.8007 26.8766 27.5502 27.8717C27.4274 28.3596 27.3039 29.0569 27.2758 29.4212L27.2245 30.0836H25.554C24.371 30.0836 23.853 30.0585 23.7789 29.9977C23.6159 29.8638 23.6527 29.5224 23.9359 28.544C24.251 27.455 24.27 27.0277 24.0154 26.7619C23.679 26.4108 23.3739 26.3349 22.1663 26.3017C21.1919 26.275 21.0294 26.287 20.8816 26.3968C20.6518 26.5676 20.4653 27.0085 19.9204 28.6693L19.4563 30.0836L17.7931 30.0825C16.8783 30.0819 16.086 30.0577 16.0324 30.0288V30.0288ZM24.8131 23.953C25.6062 23.7596 25.9403 23.3349 25.9414 22.5187C25.9418 22.2731 25.8911 22.1003 25.7893 21.9993C25.5485 21.7606 24.8234 21.6795 23.4632 21.7393L22.2808 21.7913L22.1086 22.2674C21.8428 23.0025 21.6563 23.7133 21.6854 23.8808C21.7045 23.9903 21.7966 24.0461 22.0171 24.0816C22.5 24.1594 24.3076 24.0763 24.8131 23.953ZM30.4071 30.2388C29.8789 30.0837 29.4636 29.7942 29.2891 29.4593C28.9573 28.8228 29.2623 27.408 30.4733 23.966C30.7633 23.1418 31.0006 22.4593 31.0006 22.4494C31.0006 22.4395 31.0622 22.3808 31.1376 22.3189C31.2495 22.2271 31.5049 22.2064 32.5274 22.2064C33.2165 22.2064 33.8778 22.2369 33.997 22.2741L34.2138 22.3418L33.9975 22.9723C33.4671 24.5185 32.917 26.394 32.8219 26.9804C32.7355 27.5131 32.7388 27.6547 32.8418 27.8311C33.076 28.2323 33.9263 28.3172 34.6499 28.0115C35.4989 27.653 35.6581 27.3461 37.0228 23.4383C37.2229 22.8653 37.3755 22.5675 37.5458 22.4178L37.7864 22.2064H39.1496C40.2039 22.2064 40.5229 22.228 40.5574 22.3017C40.5915 22.3747 38.8591 27.6706 38.1289 29.7255L38.0143 30.0478L36.5569 30.0836C35.7554 30.1033 35.0996 30.0993 35.0997 30.0747C35.0998 30.0501 35.1593 29.8917 35.2319 29.7226C35.5266 29.0368 35.1592 28.9937 34.0858 29.5884C33.0252 30.176 32.5805 30.3153 31.6623 30.3471C31.0415 30.3687 30.7695 30.3452 30.4071 30.2388V30.2388ZM40.0968 30.0265C40.0193 29.986 40.468 28.5648 41.7978 24.6388L43.6041 19.3062L46.6565 19.3271C50.4643 19.3533 51.2428 19.4088 51.979 19.7063C52.5843 19.951 52.8725 20.1698 53.142 20.5893C53.5946 21.294 53.5871 22.1114 53.1175 23.233C52.3958 24.9569 51.0486 26.0905 49.2728 26.468C48.985 26.5292 48.0823 26.6119 47.2668 26.6519C44.5727 26.784 44.7347 26.7592 44.5904 27.0628C44.5214 27.2079 44.2523 27.9469 43.9924 28.7051L43.5197 30.0836L41.8609 30.0825C40.9486 30.0819 40.1547 30.0567 40.0968 30.0265V30.0265ZM47.9513 24.2869C48.839 24.1929 49.3054 23.9681 49.6017 23.4912C49.92 22.9789 50.004 22.4211 49.8012 22.1669C49.5247 21.8204 49.1462 21.7447 47.7198 21.7507C47.0096 21.7537 46.3935 21.7849 46.3508 21.8201C46.2532 21.9007 45.6533 23.8477 45.6533 24.0841C45.6533 24.1804 45.6794 24.2807 45.7114 24.307C45.7941 24.3749 47.2426 24.3618 47.9513 24.2869ZM52.936 30.2683C51.9089 29.9151 51.6428 29.3313 51.9775 28.1658C52.4454 26.5364 53.4761 25.9915 57.0143 25.5029C59.1507 25.208 59.684 24.9924 59.8377 24.3616C59.9513 23.895 59.4642 23.6398 58.4582 23.639C57.8302 23.6385 57.5946 23.7137 57.0498 24.0885L56.6107 24.3905L55.4795 24.4143C54.1684 24.4419 53.7646 24.3991 53.7646 24.2324C53.7646 24.0382 54.2788 23.445 54.7595 23.0845C55.2758 22.6974 55.9591 22.4008 56.6989 22.2425C58.2526 21.9103 60.9271 21.9489 61.8463 22.3169C62.3382 22.5139 62.7755 22.841 62.9838 23.1679C63.1809 23.4773 63.1105 23.7983 62.1815 26.8221C61.7256 28.3063 61.3526 29.6473 61.3526 29.8021V30.0836H60.2745C59.6816 30.0836 59.0152 30.104 58.7937 30.1289L58.3909 30.1743L58.2137 29.8349C58.0056 29.4362 57.9811 29.4363 56.8844 29.8413C55.6933 30.2812 55.2568 30.3793 54.3315 30.4148C53.5441 30.4451 53.4084 30.4308 52.936 30.2684V30.2684V30.2683ZM57.6238 28.5951C58.2252 28.3767 58.9046 27.4827 58.9085 26.9045L58.9104 26.6256L58.3563 26.6681C57.7432 26.7151 56.4466 27.0584 55.9713 27.2996C55.57 27.5032 55.3349 27.8313 55.3362 28.1859C55.3373 28.526 55.3983 28.6191 55.6858 28.7197C56.0141 28.8345 57.1691 28.7603 57.6238 28.5951ZM62.4273 33.4759C62.078 33.4112 62.0646 33.3041 62.3075 32.5184C62.6331 31.4654 62.6117 31.4873 63.4151 31.3847C64.2823 31.274 64.6696 31.1176 64.863 30.7997C65.0772 30.4476 65.0618 29.0652 64.8025 25.3573C64.6581 23.2939 64.6222 22.3581 64.685 22.2959C64.7512 22.2304 65.1926 22.2064 66.3294 22.2064H67.8833L67.9104 24.6019C67.9289 26.2361 67.9684 27.0226 68.0345 27.0769C68.1933 27.2071 68.7768 26.3968 71.1684 22.7256L71.5066 22.2064H72.8786C73.6332 22.2064 74.2692 22.2311 74.2919 22.2612C74.3355 22.3192 72.2566 25.362 70.1705 28.2933C67.2054 32.4596 66.6477 33.0338 65.2568 33.3519C64.8027 33.4558 62.7942 33.5438 62.4273 33.4759Z" fill="#227FBB"/>
<path fill-rule="evenodd" clip-rule="evenodd" d="M75.2816 32.5204L79.3591 20.2566L83.2408 26.5944L75.2816 32.5204Z" fill="#1AAF5D"/>
<path fill-rule="evenodd" clip-rule="evenodd" d="M72.7583 32.565L76.8358 20.3019L80.7175 26.639L72.7583 32.565Z" fill="#F59D00"/>
<path fill-rule="evenodd" clip-rule="evenodd" d="M83.9938 20.0274V19.1916H83.6066V19.0459H84.5835V19.1916H84.1933V20.0274H83.9938ZM84.717 20.0274V19.0459H85.0103L85.3125 19.8299L85.6044 19.0459H85.8919V20.0274H85.71V19.2037L85.402 20.0274H85.2216L84.9003 19.1916V20.0274H84.717Z" fill="black"/>
<path opacity="0.938" fill-rule="evenodd" clip-rule="evenodd" d="M86.4923 19.5187C86.4923 20.271 85.7496 20.8808 84.8334 20.8808C83.9173 20.8808 83.1746 20.271 83.1746 19.5187C83.1746 18.7665 83.9173 18.1567 84.8334 18.1567C85.7496 18.1567 86.4923 18.7665 86.4923 19.5187Z" stroke="black" stroke-width="0.5"/>
</svg>
