<svg width="36" height="36" viewBox="0 0 36 36" fill="none" xmlns="http://www.w3.org/2000/svg">
<path d="M11.3664 35.8513C24.8616 35.8513 32.2416 22.1159 32.2416 10.2051C32.2416 9.81495 32.2352 9.42659 32.2209 9.03997C33.6535 7.76766 34.8986 6.17991 35.8807 4.37247C34.5661 5.09034 33.1514 5.5736 31.6674 5.79151C33.1821 4.6756 34.345 2.91036 34.8937 0.806C33.4761 1.83844 31.9063 2.58883 30.2348 2.99395C28.896 1.24194 26.9899 0.146118 24.8793 0.146118C20.8276 0.146118 17.542 4.1828 17.542 9.15858C17.542 9.8659 17.6064 10.5539 17.7323 11.2138C11.6345 10.8369 6.2274 7.25014 2.60868 1.79626C1.97859 3.12831 1.61526 4.67565 1.61526 6.32667C1.61526 9.45388 2.91054 12.2146 4.88022 13.8296C3.6765 13.7839 2.54574 13.378 1.55742 12.7023C1.55634 12.7401 1.55634 12.777 1.55634 12.8174C1.55634 17.1827 4.08534 20.8274 7.44246 21.6532C6.82595 21.8597 6.1773 21.9704 5.50782 21.9704C5.03579 21.9704 4.5759 21.9134 4.1289 21.8079C5.06295 25.3893 7.7715 27.9955 10.9827 28.0683C8.47158 30.4864 5.30826 31.9266 1.87026 31.9266C1.27878 31.9266 0.694462 31.8853 0.120178 31.8019C3.36726 34.3588 7.22286 35.8508 11.3668 35.8508" fill="#1DA1F2"/>
</svg>
