<svg width="80" height="30" viewBox="0 0 80 30" fill="none" xmlns="http://www.w3.org/2000/svg">
<g clip-path="url(#clip0)">
<path d="M34.6666 29.5672H28.186L32.2394 0.526367H38.7197L34.6666 29.5672Z" fill="#00579F"/>
<path d="M58.1592 1.23638C56.8809 0.648783 54.8535 0 52.3466 0C45.9468 0 41.4402 3.95429 41.4125 9.60772C41.3594 13.7788 44.6392 16.0955 47.0922 17.4863C49.5994 18.9075 50.4517 19.8351 50.4517 21.1018C50.4262 23.0474 48.4257 23.9442 46.5599 23.9442C43.9726 23.9442 42.5862 23.4818 40.4794 22.3994L39.6261 21.9354L38.7192 28.4544C40.2392 29.2568 43.0395 29.9688 45.9468 30C52.7467 30 57.1736 26.1069 57.2261 20.0823C57.2519 16.7764 55.5201 14.2432 51.7863 12.1733C49.5197 10.8445 48.1316 9.94854 48.1316 8.58897C48.1582 7.353 49.3057 6.08705 51.8643 6.08705C53.9711 6.02505 55.519 6.61183 56.6917 7.19902L57.2778 7.50739L58.1592 1.23638Z" fill="#00579F"/>
<path d="M66.7723 19.279C67.306 17.6107 69.3597 11.1537 69.3597 11.1537C69.3327 11.2157 69.8923 9.45451 70.2123 8.37334L70.6652 10.8757C70.6652 10.8757 71.8924 17.8271 72.1589 19.279C71.1461 19.279 68.0524 19.279 66.7723 19.279ZM74.7718 0.526367H69.759C68.2132 0.526367 67.0388 1.05114 66.3719 2.93589L56.7458 29.5667H63.5457C63.5457 29.5667 64.6652 25.9824 64.9058 25.2105C65.6518 25.2105 72.2666 25.2105 73.2263 25.2105C73.4124 26.23 73.9996 29.5667 73.9996 29.5667H79.9999L74.7718 0.526367Z" fill="#00579F"/>
<path d="M22.7732 0.526367L16.4266 20.3294L15.7331 16.3131C14.5598 11.6789 10.8799 6.64381 6.77332 4.14025L12.5866 29.5364H19.4396L29.6259 0.526367H22.7732Z" fill="#00579F"/>
<path d="M10.5333 0.526367H0.106668L0 1.11315C8.13339 3.52308 13.52 9.33215 15.7331 16.3144L13.4665 2.96751C13.0933 1.11273 11.9465 0.58755 10.5333 0.526367Z" fill="#FAA61A"/>
</g>
<defs>
<clipPath id="clip0">
<rect width="80" height="30" fill="white"/>
</clipPath>
</defs>
</svg>
